<svg id="Group_15330" data-name="Group 15330" xmlns="http://www.w3.org/2000/svg" xmlns:xlink="http://www.w3.org/1999/xlink" width="73.585" height="84.622" viewBox="0 0 73.585 84.622">
  <defs>
    <clipPath id="clip-path">
      <rect id="Rectangle_1779" data-name="Rectangle 1779" width="73.585" height="84.622" fill="none"/>
    </clipPath>
  </defs>
  <g id="Group_15329" data-name="Group 15329" clip-path="url(#clip-path)">
    <path id="Path_16582" data-name="Path 16582" d="M21.3,0c3.464,1.076,6.923,2.164,10.392,3.225q12.38,3.786,24.765,7.557a5.932,5.932,0,0,0,1.782.267c2.641-.01,5.283-.025,7.924,0A4.2,4.2,0,0,1,70.6,14.847a4.147,4.147,0,0,1-3.723,4.52c-.055,0-.11,0-.165.005-2.1.075-2.1.075-2.1,2.148,0,2.312,0,4.624,0,6.936,0,1.1-.318,1.459-1.395,1.666a1.525,1.525,0,0,0-1.423,1.7A1.384,1.384,0,0,0,63.1,33.162a1.521,1.521,0,0,0,1.723-1.4c.2-1,.733-1.5,1.492-1.4.8.1,1.239.8,1.125,1.8a4.2,4.2,0,0,1-8.169.866,4.155,4.155,0,0,1,1.822-4.937,1.406,1.406,0,0,0,.815-1.432q-.06-3.178,0-6.357c.013-.725-.225-.946-.948-.941-4.567.028-9.135.014-13.7.013a7.653,7.653,0,0,1-.825-.014,1.257,1.257,0,0,1-1.217-1.233,1.239,1.239,0,0,1,.975-1.35,3.85,3.85,0,0,1,1.228-.108q9.2,0,18.407,0c1.427,0,2.163-.516,2.129-1.48-.034-.939-.758-1.429-2.124-1.429H29.182c-1.044,0-1.079.009-.89,1.025.4,2.171.033,1.872,2.134,1.881,3.164.013,6.328,0,9.493,0a3.74,3.74,0,0,1,1.225.133,1.246,1.246,0,0,1,.914,1.32,1.23,1.23,0,0,1-1.128,1.227,6.345,6.345,0,0,1-.989.027c-3.3,0-6.6.008-9.905-.005-.6,0-.977,0-.827.84a1.922,1.922,0,0,1-1.99,2.281c-.886-.026-1.1.265-1.1,1.122q.035,25.678.018,51.357c0,1.107,0,1.107,1.15,1.11,1.745,0,2.014.191,2.524,1.847.454,1.471.912,2.942,1.323,4.425a1.638,1.638,0,0,1-1.7,2.259q-8.832.015-17.664,0a1.66,1.66,0,0,1-1.72-2.315c.443-1.56.93-3.108,1.405-4.659.377-1.23.81-1.548,2.077-1.558,1.56-.013,1.462.2,1.462-1.465q0-25.431,0-50.862c0-1.148,0-1.148-1.114-1.242a1.957,1.957,0,0,1-1.829-2.29c.141-.811-.178-.869-.808-.853-1.155.029-2.312.031-3.466,0-.594-.016-.857.175-.834.8.034.907.02,1.816.006,2.724-.007.487.191.71.687.69.439-.018.881-.017,1.32.006A2.106,2.106,0,0,1,11.1,25.74c.03,1.375.027,2.753,0,4.128A2.073,2.073,0,0,1,9,32.057c-2.283.048-4.568.042-6.85,0A2.182,2.182,0,0,1,0,30.224v-4.79a2.271,2.271,0,0,1,2.125-1.858c.684-.079,1.613.378,1.993-.268.316-.537.117-1.385.12-2.1.009-1.829,0-1.829-1.815-1.836-1.486,0-1.947-.329-2.423-1.7V12.717a2.268,2.268,0,0,1,2.511-1.676,2.656,2.656,0,0,0,1.663-.3Q12.066,5.355,19.978,0Zm-.751,19.926c1.7,0,3.405-.011,5.107.007.52.005.792-.147.693-.712-.465-2.646-.934-5.292-1.385-7.94a.7.7,0,0,0-.825-.676c-2.334.021-4.668.025-7,0a.756.756,0,0,0-.87.745q-.667,3.933-1.35,7.863c-.09.512.011.743.607.729,1.674-.036,3.35-.013,5.025-.013m27.138-8.882.022-.128L44.349,9.89q-10.8-3.3-21.607-6.606c-.591-.182-.8-.092-.778.551.034,1.072.037,2.147,0,3.219-.023.664.252.874.881.842.741-.037,1.485-.018,2.228,0a2.139,2.139,0,0,1,2.362,2.034c.1.84.411,1.145,1.3,1.139,6.08-.038,12.16-.02,18.24-.02h.714M20.569,82.025c2.309,0,4.618-.01,6.927.007.576,0,.744-.175.54-.734a12.234,12.234,0,0,1-.515-1.737c-.139-.688-.481-.916-1.194-.907-3.243.038-6.487.008-9.731.023-.847,0-1.846-.315-2.5.138-.7.481-.595,1.595-.93,2.4-.288.691-.026.834.641.824,2.254-.031,4.508-.012,6.762-.013M7.992,13.759H4.613c-1.944,0-1.913,0-1.934,1.989-.008.739.253.944.958.934,2.307-.033,4.616-.012,6.923-.012,2.221,0,2.2,0,2.471-2.254.066-.546-.087-.67-.588-.663-1.483.02-2.967.007-4.451.007m.81-2.894.047.18c1.221,0,2.445-.053,3.663.018.866.051,1.206-.257,1.319-1.111a2.139,2.139,0,0,1,2.4-2.061c.768-.011,1.537-.022,2.3,0,.522.016.751-.174.732-.717-.028-.8,0-1.592-.011-2.388,0-.263.136-.619-.118-.77-.269-.16-.488.16-.7.3Q14.715,6.826,11,9.344c-.738.5-1.466,1.014-2.2,1.521M5.488,29.352v0c.248,0,.5.006.743,0,2.547-.07,2.117.524,2.159-2.342,0-.028,0-.055,0-.083.024-.462-.209-.634-.654-.628-.935.012-1.871-.017-2.806.005-2.674.064-2.176-.53-2.232,2.339,0,.027,0,.055,0,.083-.034.466.2.637.646.628.715-.015,1.431,0,2.146,0m17.719-2.429.213-.1c0-1.261,0-2.523,0-3.784a.454.454,0,0,0-.506-.513H19.226l3.981,4.4M17.721,52.878c0,1.5,0,2.751,0,4.005,0,.325.132.526.482.527q1.524,0,3.048,0c.393,0,.437-.173.192-.444-1.177-1.3-2.359-2.6-3.721-4.092m0,18.668c0,1.5,0,2.76,0,4.017,0,.4.222.519.58.517.961-.005,1.922,0,2.882,0,.375,0,.567-.105.247-.459-1.175-1.3-2.359-2.593-3.709-4.075m.2-46.447-.2.107q0,1.8,0,3.6c0,.231.047.5.311.5,1.173.024,2.347.01,3.714.01L17.919,25.1m0,37.326-.2.116q0,1.762,0,3.524c0,.339.082.6.49.6,1.11,0,2.22,0,3.549,0l-3.838-4.246m3.856-14.414L17.9,43.754a27.033,27.033,0,0,0-.181,3.709.477.477,0,0,0,.548.55c1.087,0,2.174,0,3.506,0m-2.415,12,3.864,4.249a24.151,24.151,0,0,0,.193-3.766c0-.4-.278-.485-.616-.484-1.065,0-2.131,0-3.441,0m.011-18.663,3.849,4.247.2-.091c0-1.222,0-2.443,0-3.664,0-.4-.263-.495-.607-.494-1.067,0-2.133,0-3.44,0M17.72,34.21c0,1.454,0,2.654,0,3.854,0,.31.1.565.448.572q1.48.028,2.96.008c.362-.005.435-.2.189-.474-1.137-1.257-2.28-2.51-3.6-3.96m5.7,2.275c0-1.466,0-2.689,0-3.911a.426.426,0,0,0-.451-.478q-1.482-.015-2.965-.01c-.305,0-.436.148-.208.4,1.146,1.277,2.3,2.543,3.626,4m-.192,18.453.191-.042c0-1.226,0-2.451,0-3.677,0-.347-.232-.47-.548-.471q-1.4,0-2.8,0c-.437,0-.488.182-.213.486q1.683,1.857,3.374,3.708m.183,18.867c0-1.483.005-2.732,0-3.98a.392.392,0,0,0-.432-.4q-1.483-.015-2.965-.01c-.294,0-.452.138-.22.4,1.145,1.28,2.3,2.546,3.621,4" fill="#1a1818"/>
    <path id="Path_16583" data-name="Path 16583" d="M231.356,245.09q-8.79,0-17.581.006c-.761,0-1.382-.168-1.586-.991a1.269,1.269,0,0,1,1.373-1.6c1.466-.018,1.413.216,1.413-1.436q0-5.945,0-11.889c0-1,.391-1.576,1.1-1.693.953-.156,1.6.462,1.61,1.591.015,2.669.006,5.339.006,8.008,0,1.514.03,3.028-.013,4.541-.02.7.24.894.91.883,2.173-.033,4.347-.042,6.52,0,.752.016.928-.257.917-.958-.036-2.449-.016-4.9-.013-7.348,0-1.587.53-2.106,2.145-2.109q3.178,0,6.356,0c1.673,0,2.184.5,2.187,2.145,0,2.422.023,4.844-.012,7.265-.011.724.154,1.027.956,1.007,2.145-.054,4.292-.042,6.437,0,.7.012.97-.169.968-.919q-.034-11.848,0-23.7c0-.678-.215-.908-.9-.9-2.778.03-5.557.015-8.336.011-1.65,0-2.336-.7-2.348-2.371-.012-1.553.145-1.429-1.416-1.43-4.43,0-8.859.018-13.289-.018-.816-.007-1.1.193-1.085,1.053.052,2.806.025,5.614.014,8.421,0,.928-.417,1.489-1.114,1.6A1.31,1.31,0,0,1,215,222.9c-.031-3.44-.021-6.88,0-10.32a1.783,1.783,0,0,1,.722-1.516,1.387,1.387,0,0,0,.582-1.345q-.017-7.678-.005-15.356a5.5,5.5,0,0,1,.037-.906,1.285,1.285,0,0,1,1.366-1.16,1.206,1.206,0,0,1,1.274,1.24c-.048,1.062.5,1.105,1.31,1.1q4.374-.049,8.749,0c.677.007,1-.134.992-.9a1.277,1.277,0,0,1,1.35-1.435c.827.005,1.336.553,1.34,1.541.016,3.22.029,6.44-.008,9.659-.009.778.2,1.05,1.012,1.038q4.5-.067,9,0c.826.013,1.085-.281,1-1.049a6.818,6.818,0,0,1,0-.99c.031-1.05.508-1.61,1.362-1.611s1.35.56,1.353,1.612q.017,5.325,0,10.65a1.867,1.867,0,0,0,.735,1.857c.609.41.605,1.18.6,1.887q-.01,12.1,0,24.19c0,.22.018.442,0,.66-.056.573.188.81.762.763a4.84,4.84,0,0,1,.989.016,1.235,1.235,0,0,1,1.116,1.31,1.218,1.218,0,0,1-1.107,1.236,5.97,5.97,0,0,1-.906.022h-17.25m-6.9-40.575c1.6,0,3.191-.017,4.786.009.575.009.776-.2.769-.771q-.034-2.848,0-5.7c.005-.54-.214-.722-.737-.719q-4.745.02-9.49,0c-.575,0-.773.21-.766.776.022,1.871.027,3.742,0,5.613-.01.62.22.814.821.8,1.54-.031,3.081-.01,4.621-.01m13.746,2.7h-3.219c-2.271,0-2.239,0-2.273,2.259-.012.793.233,1.038,1.027,1.037,1.661,0,2.442.852,2.458,2.523a4.849,4.849,0,0,1,0,.5c-.053.567.2.787.764.781,1.98-.018,3.961-.021,5.942,0,.606.007.826-.217.817-.823-.026-1.816-.031-3.632,0-5.448.012-.679-.288-.844-.9-.834-1.54.024-3.081.008-4.621.007m-4.089,31.458c0-1.044-.018-2.088.007-3.131.013-.535-.2-.736-.726-.729q-2.018.027-4.036,0c-.515-.006-.746.173-.742.718q.027,3.131,0,6.262c0,.538.2.725.73.716,1.345-.023,2.691-.029,4.036,0,.6.014.755-.244.74-.79-.028-1.016-.008-2.032-.009-3.048m-9.685-28.183h3.3c2.306,0,2.274,0,2.294-2.309.007-.783-.278-.987-1.01-.978-2.529.032-5.06.012-7.59.012-2.461,0-2.439,0-2.412,2.446.008.668.258.851.881.838,1.512-.03,3.025-.01,4.537-.009" transform="translate(-177.038 -160.474)" fill="#1a1818"/>
    <path id="Path_16584" data-name="Path 16584" d="M345.3,367.649c-.825,0-1.65.01-2.475,0a1.677,1.677,0,0,1-1.875-1.741q-.067-2.6,0-5.2a1.687,1.687,0,0,1,1.818-1.734q2.515-.043,5.032,0a1.665,1.665,0,0,1,1.8,1.88q.016,2.476,0,4.952a1.642,1.642,0,0,1-1.831,1.84c-.825.014-1.65,0-2.475,0M343.66,363.3c.018,1.793-.218,1.64,1.611,1.641,1.768,0,1.658.166,1.657-1.62,0-1.837.119-1.628-1.635-1.627-1.84,0-1.614-.208-1.632,1.606" transform="translate(-284.507 -299.553)" fill="#1a1818"/>
    <path id="Path_16585" data-name="Path 16585" d="M263.07,363.289c0-.853-.015-1.706,0-2.558a1.621,1.621,0,0,1,1.679-1.754q2.638-.068,5.28,0a1.667,1.667,0,0,1,1.7,1.759q.052,2.557,0,5.116a1.669,1.669,0,0,1-1.829,1.786q-2.516.024-5.033,0a1.639,1.639,0,0,1-1.8-1.79c-.016-.853,0-1.706,0-2.558m5.957-.046c-.015-1.725.182-1.546-1.538-1.559h-.083c-1.788.018-1.632-.209-1.633,1.64,0,1.754-.145,1.614,1.591,1.611,1.889,0,1.642.174,1.663-1.692" transform="translate(-219.533 -299.546)" fill="#1a1818"/>
  </g>
</svg>
