<svg xmlns="http://www.w3.org/2000/svg" xmlns:xlink="http://www.w3.org/1999/xlink" width="14.708" height="14.702" viewBox="0 0 14.708 14.702">
  <defs>
    <clipPath id="clip-path">
      <rect id="Rectangle_56" data-name="Rectangle 56" width="14.708" height="14.702" fill="#011555"/>
    </clipPath>
  </defs>
  <g id="Group_5" data-name="Group 5" transform="translate(-1497.881 -4019.885)">
    <g id="Group_99" data-name="Group 99" transform="translate(1497.881 4019.885)">
      <g id="Group_94" data-name="Group 94" clip-path="url(#clip-path)">
        <path id="Path_75" data-name="Path 75" d="M144.329,139.207c0-.077-.011-.155-.011-.232q0-4.657,0-9.314c0-.281,0-.281.288-.281.812,0,1.624,0,2.436,0,.18,0,.243.054.236.235-.012.344,0,.689,0,1.09a3.581,3.581,0,0,1,.464-.6,3.286,3.286,0,0,1,2.129-.944,4.989,4.989,0,0,1,1.492.111,2.767,2.767,0,0,1,2.115,1.864,5.651,5.651,0,0,1,.325,1.716c.08,2.083.016,4.166.035,6.249a1.04,1.04,0,0,1-.01.107h-3.046a.631.631,0,0,1-.035-.3q-.005-2.589-.009-5.177a3.187,3.187,0,0,0-.116-.813,1.308,1.308,0,0,0-.763-.956,1.686,1.686,0,0,0-2.367,1.288,7.416,7.416,0,0,0-.095,1.319c-.01,1.463,0,2.926,0,4.389,0,.083-.009.166-.014.249Z" transform="translate(-139.133 -124.505)" fill="#011555"/>
        <path id="Path_76" data-name="Path 76" d="M5.985,145.449q0-3.609,0-7.218,0-1.173,0-2.346c0-.256.007-.262.26-.263.866,0,1.731,0,2.6,0,.175,0,.238.045.238.231q-.008,4.71,0,9.421c0,.059-.007.119-.011.178Z" transform="translate(-5.77 -130.748)" fill="#011555"/>
        <path id="Path_77" data-name="Path 77" d="M0,1.479A2.642,2.642,0,0,1,.269.819a1.784,1.784,0,0,1,3.284,1A1.829,1.829,0,0,1,2.009,3.562,1.784,1.784,0,0,1,.052,2.242C.034,2.179.017,2.116,0,2.052V1.479" transform="translate(0 0)" fill="#011555"/>
      </g>
    </g>
  </g>
</svg>
