<svg id="Group_15328" data-name="Group 15328" xmlns="http://www.w3.org/2000/svg" xmlns:xlink="http://www.w3.org/1999/xlink" width="72.768" height="72.788" viewBox="0 0 72.768 72.788">
  <defs>
    <clipPath id="clip-path">
      <rect id="Rectangle_1778" data-name="Rectangle 1778" width="72.768" height="72.788" fill="none"/>
    </clipPath>
  </defs>
  <g id="Group_15327" data-name="Group 15327" clip-path="url(#clip-path)">
    <path id="Path_16579" data-name="Path 16579" d="M0,237.263a4.468,4.468,0,0,1,2.934-3.135A4.411,4.411,0,0,1,8.7,238.336a27,27,0,0,0,8.079,18.25,26.225,26.225,0,0,0,15.668,7.763c10.12,1.252,18.5-2.107,25.172-9.794.466-.536.42-.831-.167-1.2-.86-.541-1.671-1.161-2.514-1.73a2.551,2.551,0,0,1,.564-4.692c4.531-1.658,9.053-3.34,13.583-5a2.531,2.531,0,0,1,3.674,2.56c0,4.852-.013,9.7.011,14.555a2.513,2.513,0,0,1-4.087,2.173c-.927-.656-1.877-1.281-2.786-1.961-.418-.313-.648-.278-.971.139a35.571,35.571,0,0,1-11.583,9.755,35.966,35.966,0,0,1-12.507,3.95,35.217,35.217,0,0,1-21.056-3.653A35.909,35.909,0,0,1,1.121,246.441,44.807,44.807,0,0,1,0,240.388ZM56.428,249.37a1.5,1.5,0,0,0,.609.55c1.1.777,2.212,1.544,3.317,2.317s1.192,1.395.392,2.485a29.1,29.1,0,0,1-4.368,4.836A29.839,29.839,0,0,1,34.1,267.145a28.291,28.291,0,0,1-12.78-3.87c-9.42-5.6-14.473-13.927-15.25-24.851A1.916,1.916,0,0,0,4.3,236.478a1.8,1.8,0,0,0-1.741,2,23.7,23.7,0,0,0,.445,4.367c2.384,12.1,9.24,20.624,20.56,25.482a32.289,32.289,0,0,0,16.253,2.3,33.083,33.083,0,0,0,11.7-3.448,33.465,33.465,0,0,0,12.253-10.545,1.4,1.4,0,0,1,2.289-.4c1.17.8,2.327,1.627,3.495,2.434.148.1.292.317.483.236.208-.088.117-.336.117-.512,0-4.425,0-8.851.01-13.276,0-.6-.162-.744-.751-.523-2.723,1.023-5.459,2.011-8.189,3.014-1.594.586-3.187,1.176-4.8,1.771" transform="translate(0 -200.625)" fill="#1a1818"/>
    <path id="Path_16580" data-name="Path 16580" d="M39.479,0a43.574,43.574,0,0,1,6.059,1.075,35.91,35.91,0,0,1,24.149,20.5A32.985,32.985,0,0,1,72.751,35.1a4.334,4.334,0,0,1-8.6.748,51.421,51.421,0,0,0-.848-5.953c-3-11.013-10-18.094-21.136-20.558-9.652-2.136-18.143.621-25.288,7.453-.648.619-1.186,1.351-1.809,2-.455.473-.447.778.141,1.144.883.549,1.709,1.187,2.569,1.775a2.548,2.548,0,0,1-.591,4.687c-4.575,1.673-9.142,3.366-13.717,5.039C2,31.972.994,31.533,0,29.963V13.206c1.177-1.92,2.514-2.189,4.361-.883.772.546,1.579,1.048,2.319,1.634.525.416.8.368,1.224-.174a35.933,35.933,0,0,1,19-12.589A45.907,45.907,0,0,1,33.373,0ZM16.4,23.906l-4.1-2.852c-1-.695-1.123-1.344-.44-2.329a24.217,24.217,0,0,1,2.7-3.286c7.438-7.476,16.409-10.6,26.819-8.92,9.693,1.566,16.9,6.908,21.672,15.469A29.116,29.116,0,0,1,66.648,35,1.732,1.732,0,0,0,68.6,36.766c1-.074,1.581-.8,1.546-1.994a32.324,32.324,0,0,0-3.159-12.927A33.774,33.774,0,0,0,9.015,16.569c-.811,1.122-1.376,1.218-2.485.446-1.127-.784-2.246-1.577-3.372-2.362-.149-.1-.294-.311-.487-.224s-.117.337-.117.514c0,4.425,0,8.851-.012,13.277,0,.637.215.711.763.507,2.591-.97,5.192-1.914,7.789-2.868L16.4,23.906" transform="translate(0 0.001)" fill="#1a1818"/>
    <path id="Path_16581" data-name="Path 16581" d="M145.255,98.682c0-.465-.012-.724,0-.981a2.417,2.417,0,0,1,2.064-2.282,17.994,17.994,0,0,1,4.106-.043,2.417,2.417,0,0,1,2.436,2.725c0,2.7.013,5.4-.009,8.092a1.5,1.5,0,0,0,.526,1.241c.688.614,1.343,1.266,2,1.909a3.14,3.14,0,0,1,.959,3.475,2.955,2.955,0,0,1-2.829,2.1c-.632.035-.655.351-.654.823q.011,7.311,0,14.623a3.64,3.64,0,0,1-3.886,3.91q-11.925,0-23.851,0a3.64,3.64,0,0,1-3.883-3.913c0-4.851-.01-9.7.01-14.552,0-.61-.13-.858-.8-.908a2.907,2.907,0,0,1-2.688-2.087,3.033,3.033,0,0,1,.869-3.367q8.057-7.749,16.135-15.476a3.015,3.015,0,0,1,4.592.012c1.592,1.512,3.169,3.038,4.9,4.7m-7.21,13.638h15.543c.213,0,.426,0,.639,0a.586.586,0,0,0,.637-.348.625.625,0,0,0-.239-.692c-.134-.133-.269-.266-.406-.4-4.966-4.767-9.919-9.548-14.909-14.289-1.425-1.354-1.006-1.443-2.554.032q-6.68,6.363-13.327,12.76c-.666.638-1.324,1.285-1.982,1.932a.573.573,0,0,0-.181.7.585.585,0,0,0,.6.3c.213,0,.426,0,.639,0h15.543m.072,2.626c-4.142,0-8.284.012-12.426-.013-.658,0-.855.213-.853.857.02,4.828.008,9.657.015,14.485,0,1.047.328,1.385,1.342,1.393,1.657.014,3.314-.015,4.97.015.615.011.756-.249.75-.808-.023-2.083-.016-4.165-.007-6.248a6.147,6.147,0,1,1,12.293.017c.01,2.059.024,4.119-.01,6.177-.011.644.181.88.842.865,1.561-.038,3.124-.008,4.686-.014,1.26,0,1.539-.284,1.54-1.557,0-4.757-.013-9.515.016-14.272,0-.737-.247-.916-.945-.911-4.071.028-8.142.014-12.213.014m-3.578,12.681h0c0,1.088.023,2.176-.009,3.262-.017.574.17.8.767.794,1.843-.027,3.688-.021,5.531,0,.533.006.766-.156.76-.728-.024-2.2.009-4.4-.02-6.6a3.515,3.515,0,0,0-7.021.007c-.023,1.087,0,2.175,0,3.262m16.545-23.369.171-.1q0-2.859,0-5.718c0-.4-.209-.529-.581-.523-.73.012-1.462.02-2.192,0-.468-.015-.627.19-.616.633.018.73,0,1.461.006,2.192a.767.767,0,0,0,.172.595q1.516,1.464,3.038,2.92" transform="translate(-101.699 -79.697)" fill="#1a1818"/>
  </g>
</svg>
