<svg xmlns="http://www.w3.org/2000/svg" xmlns:xlink="http://www.w3.org/1999/xlink" width="7.645" height="14.736" viewBox="0 0 7.645 14.736">
  <defs>
    <clipPath id="clip-path">
      <rect id="Rectangle_57" data-name="Rectangle 57" width="7.645" height="14.736" fill="#fff"/>
    </clipPath>
  </defs>
  <g id="Group_151" data-name="Group 151" clip-path="url(#clip-path)">
    <path id="Path_102" data-name="Path 102" d="M4.97,14.736H2.27c0-.062-.007-.124-.007-.186q0-3.18,0-6.36c0-.152-.045-.181-.185-.179-.536.008-1.072,0-1.609,0A2.776,2.776,0,0,1,0,8V5.382a.191.191,0,0,0,.042.009c.7,0,1.408,0,2.111,0,.108,0,.11-.055.11-.135,0-.566,0-1.132,0-1.7A5,5,0,0,1,2.357,2.5,2.951,2.951,0,0,1,3.786.447,3.706,3.706,0,0,1,5.676,0C6.289,0,6.9.037,7.512.087c.106.009.133.045.132.149,0,.686-.006,1.372,0,2.058,0,.129-.034.156-.158.156-.526,0-1.053-.026-1.579.021a.918.918,0,0,0-.887.707,1.311,1.311,0,0,0-.051.354c0,.571,0,1.142-.009,1.712,0,.121.033.152.152.151.766-.005,1.532,0,2.3,0,.109,0,.138.023.122.137Q7.375,6.7,7.232,7.88c-.014.111-.06.136-.164.136-.642,0-1.283,0-1.925-.006-.141,0-.184.029-.184.179q.008,3.2,0,6.4c0,.048,0,.1.007.143" transform="translate(0 0)" fill="#fff"/>
  </g>
</svg>
