<svg id="Group_15319" data-name="Group 15319" xmlns="http://www.w3.org/2000/svg" xmlns:xlink="http://www.w3.org/1999/xlink" width="70.955" height="45.793" viewBox="0 0 70.955 45.793">
  <defs>
    <clipPath id="clip-path">
      <rect id="Rectangle_1773" data-name="Rectangle 1773" width="70.955" height="45.793" fill="#fff"/>
    </clipPath>
  </defs>
  <g id="Group_15318" data-name="Group 15318" clip-path="url(#clip-path)">
    <path id="Path_16575" data-name="Path 16575" d="M55.258,0a2.124,2.124,0,0,1,.916,1.968c-.021,9.241,0,18.482-.033,27.723,0,.759.2,1.058.944,1.218,1.875.4,2.036.655,2.037,2.542,0,2.865.027,5.73-.018,8.594-.012.746.224.92.932.911,2.988-.036,5.977-.014,8.965-.016a2.205,2.205,0,0,1,1.333.272,1.311,1.311,0,0,1,.615,1.263,1.347,1.347,0,0,1-.9,1.178,3.124,3.124,0,0,1-1.184.14H2.132c-.092,0-.185,0-.277,0C.651,45.769-.02,45.239,0,44.329c.02-.876.667-1.379,1.825-1.384,2.095-.009,4.19-.023,6.285.009.6.009.785-.171.779-.778-.013-1.5.451-2.179,1.383-2.189s1.387.644,1.389,2.167c0,.586.151.818.779.8q2.309-.061,4.62,0c.6.015.716-.224.707-.758-.027-1.632-.019-3.265-.006-4.9.009-1.213.538-1.766,1.741-1.77q5.592-.021,11.183,0c1.224,0,1.748.525,1.766,1.751.023,1.632.03,3.266-.005,4.9-.013.611.2.773.791.78,2.3.026,2.3.046,2.3-2.216,0-1.171-.019-2.342.007-3.512a1.51,1.51,0,0,1,1.723-1.7q5.638-.022,11.276,0c1.148,0,1.682.566,1.694,1.726.017,1.633.025,3.266-.006,4.9-.011.575.124.82.758.8,1.508-.042,3.019-.033,4.528,0,.574.011.822-.128.815-.764q-.047-3.881,0-7.762c.009-.656-.216-.882-.844-1.037q-12.833-3.176-25.653-6.408c-5.75-1.438-11.507-2.848-17.248-4.321-.823-.211-.927.019-.923.746.025,3.881.01,7.763.013,11.644a1.683,1.683,0,0,1-.517,1.507,1.409,1.409,0,0,1-2.274-1.1c-.019-.985-.009-1.971-.009-2.957q0-5.591,0-11.182c0-1.814.639-2.312,2.416-1.867q11.612,2.906,23.222,5.82c1.02.256,1.021.258,1.021-.815,0-7.455.01-14.909-.012-22.363A2.355,2.355,0,0,1,36.4,0h7.025a2.281,2.281,0,0,1,.9,2.075c-.022,8.253,0,16.506-.031,24.759a.932.932,0,0,0,.865,1.1c2.388.563,4.763,1.182,7.142,1.782,1.042.263,1.044.264,1.044-.789q0-9.007,0-18.015c0-2.23,0-2.189-2.189-2.239-.817-.019-.943.271-.937,1,.032,4.434.018,8.869.012,13.3a3.623,3.623,0,0,1-.089,1,1.284,1.284,0,0,1-1.46,1,1.252,1.252,0,0,1-1.226-1.163,6.226,6.226,0,0,1-.049-.92c0-6.929.007-13.857-.013-20.786A2.4,2.4,0,0,1,48.234,0ZM41.378,26.912a2.65,2.65,0,0,0,.087-1.079q.006-7.519,0-15.039c0-2.109,0-2.075-2.116-2.117-.753-.015-.99.17-.984.956.038,4.613.015,9.226.021,13.839,0,.888-.289,2.024.146,2.6.533.708,1.783.6,2.723.844a.493.493,0,0,0,.119-.006M25.054,42.942c1.291,0,2.582-.019,3.872.009.514.011.706-.152.69-.68q-.049-1.612,0-3.226c.015-.522-.168-.691-.686-.687q-3.826.029-7.652,0c-.507,0-.718.156-.7.685q.041,1.612,0,3.226c-.014.53.194.692.7.681,1.259-.025,2.52-.008,3.78-.009m17.828-4.576c-1.259,0-2.52.024-3.778-.011-.57-.016-.747.186-.728.743.036,1.043.026,2.089,0,3.132-.011.478.084.727.648.722,2.58-.024,5.161-.019,7.741,0,.479,0,.654-.164.644-.641-.022-1.074-.032-2.151,0-3.225.019-.579-.21-.74-.756-.727-1.259.029-2.519.009-3.778.009M50.238,4.373c0,1.548,0,1.548,1.529,1.548,1.58,0,1.58,0,1.58-1.6,0-1.547,0-1.547-1.544-1.547-1.565,0-1.565,0-1.565,1.6M38.386,4.358c0,1.563,0,1.563,1.435,1.563,1.646,0,1.646,0,1.646-1.635,0-1.516,0-1.516-1.487-1.516-1.594,0-1.594,0-1.594,1.588" transform="translate(0 -0.001)" fill="#fff"/>
  </g>
</svg>
