<svg id="Group_15317" data-name="Group 15317" xmlns="http://www.w3.org/2000/svg" xmlns:xlink="http://www.w3.org/1999/xlink" width="62.405" height="45.793" viewBox="0 0 62.405 45.793">
  <defs>
    <clipPath id="clip-path">
      <rect id="Rectangle_1772" data-name="Rectangle 1772" width="62.405" height="45.793" fill="#fff"/>
    </clipPath>
  </defs>
  <g id="Group_15316" data-name="Group 15316" clip-path="url(#clip-path)">
    <path id="Path_16568" data-name="Path 16568" d="M62.4,45.187c-.305.41-.651.752-1.22.541s-.614-.679-.611-1.2c.011-2.253.006-4.506,0-6.759a2.2,2.2,0,0,0-1.9-2.5c-1.128-.327-2.262-.633-3.383-.984a.5.5,0,0,0-.634.16,1.67,1.67,0,0,1-.129.129c-.624.637-1.482,1.176-1.8,1.94a7.116,7.116,0,0,0-.085,2.589q0,2.71,0,5.42a1.485,1.485,0,0,1-.127.771.86.86,0,0,1-.909.479.838.838,0,0,1-.775-.739,4.3,4.3,0,0,1-.029-.668c0-2.456-.009-4.912.007-7.369a1.1,1.1,0,0,0-.376-.9c-.436-.4-.838-.827-1.255-1.243-.729-.729-.729-.729-1.759-.312,1.343,1.371,1.366,3.085,1.333,4.831-.034,1.806-.007,3.613-.009,5.42a.9.9,0,0,1-.746.974.865.865,0,0,1-.973-.464,1.388,1.388,0,0,1-.11-.772c0-2.091,0-4.182,0-6.272a3.1,3.1,0,0,0-2.345-3.343c-1.692-.62-3.39-1.225-5.075-1.866a.53.53,0,0,0-.77.261c-.662,1.045-1.358,2.069-2.054,3.092a1.92,1.92,0,0,1-3.194.318c-.4-.393-.792-.8-1.289-1.3-.016.351-.035.562-.035.772q0,4.08,0,8.16a3.315,3.315,0,0,1-.017.547c-.087.512-.354.882-.913.884a.875.875,0,0,1-.917-.868,4.591,4.591,0,0,1-.027-.607q0-4.019,0-8.038V35.52a6.692,6.692,0,0,0-1.259,1.141,1.955,1.955,0,0,1-3.317-.335c-.691-1.026-1.384-2.052-2.053-3.092a.451.451,0,0,0-.639-.213c-1.8.667-3.619,1.307-5.42,1.983a3.008,3.008,0,0,0-2.07,3.109c-.013,2.071,0,4.141,0,6.212a5.56,5.56,0,0,1-.032.668.836.836,0,0,1-.8.783.846.846,0,0,1-.959-.666,2.127,2.127,0,0,1-.062-.6c0-2.152,0-4.3,0-6.455A5.4,5.4,0,0,1,14.18,35.7c.073-.154.344-.368.014-.486-.305-.109-.555-.573-.961-.223-.246.212-.473.446-.71.668a3.874,3.874,0,0,1-5.575.06c-.992-.888-.992-.888-2.2-.285-.526.262-1.048.532-1.579.783A2.215,2.215,0,0,0,1.823,38.4c.005,1.908,0,3.816,0,5.724,0,.142,0,.284,0,.426,0,.8-.337,1.244-.93,1.232C.322,45.775,0,45.347,0,44.58q0-3.2,0-6.394A4.115,4.115,0,0,1,.066,37.4a3.832,3.832,0,0,1,2.156-2.777c.738-.375,1.481-.742,2.3-1.153a11.432,11.432,0,0,1-1.906-1.151c-.279-.234-.55-.48-.817-.729a1.9,1.9,0,0,1-.538-2.377,12.365,12.365,0,0,0,.567-4.075,23.575,23.575,0,0,1,.36-4.3,7.876,7.876,0,0,1,6.918-6.173,7.733,7.733,0,0,1,7.7,4.857,11.139,11.139,0,0,1,.73,4.043A32.056,32.056,0,0,0,17.9,28.3a5.31,5.31,0,0,0,.364,1.281,1.387,1.387,0,0,1-.257,1.571,8.552,8.552,0,0,1-3.048,2.279.985.985,0,0,0,1.311.168c1.718-.822,3.557-1.348,5.337-2.02a1.668,1.668,0,0,0,1.061-.845A6.237,6.237,0,0,1,24,29.237a1.548,1.548,0,0,0,.426-1.073,4.636,4.636,0,0,0-1.4-3.989,9.918,9.918,0,0,1-2.5-7,16.089,16.089,0,0,0-.57-3.742,12.409,12.409,0,0,1,.493-8.51,8.415,8.415,0,0,1,6.474-4.8c.1-.017.2-.023.262-.123H42.293a1.435,1.435,0,0,1,.61,1.358c-.018,3.024-.01,6.049-.008,9.073a6.972,6.972,0,0,1-.226,2.233,19.426,19.426,0,0,0-.82,5.66,8.585,8.585,0,0,1-2.51,6.043A4.369,4.369,0,0,0,38,28.242a1.429,1.429,0,0,0,.394.96,6.545,6.545,0,0,1,1.49,1.746.753.753,0,0,0,.483.468c1.506.541,3.012,1.08,4.513,1.635a1.145,1.145,0,0,0,.768.041c.484-.148.978-.268,1.454-.437.3-.107.768-.1.749-.567-.022-.53.206-1.082-.368-1.557a6.6,6.6,0,0,1-2.506-5.007,9.455,9.455,0,0,0-.684-3.337,5.682,5.682,0,0,1,4.686-7.446c3.142-.25,6.292-.06,9.438-.1.721-.009,1.051.382,1.057,1.122.008,1.015.013,2.03,0,3.045a7.44,7.44,0,0,1-.145,2.659,15.465,15.465,0,0,0-.933,4.822A5.912,5.912,0,0,1,55.9,30.648c-.562.432-.3,1-.3,1.513,0,.412.429.416.732.5,1.069.311,2.14.616,3.208.933a3.812,3.812,0,0,1,2.738,2.758c.023.079.036.156.127.184ZM34.312,1.83c-1.929,0-3.857-.009-5.786,0a6.865,6.865,0,0,0-7.113,6.786,11.592,11.592,0,0,0,.558,5.154,5.125,5.125,0,0,1,.409,2.182,12.175,12.175,0,0,0,.535,4.438,8.8,8.8,0,0,0,16.856-.664,15.864,15.864,0,0,0,.294-4.172,3.758,3.758,0,0,1,.312-1.591,7.063,7.063,0,0,0,.6-2.524c.161-3.061.024-6.125.079-9.187.008-.439-.229-.428-.536-.427-2.071.006-4.141,0-6.212,0M57.646,18.6c0-.487-.032-.977.009-1.46s-.1-.661-.627-.654c-2.294.029-4.589.006-6.883.018a6.218,6.218,0,0,0-1.326.133,3.841,3.841,0,0,0-2.509,5.595,3.509,3.509,0,0,1,.483,2.032,7,7,0,0,0,.267,2.526,5.019,5.019,0,0,0,4.6,3.467,4.9,4.9,0,0,0,4.762-3.468,9.871,9.871,0,0,0,.251-2.955,1.753,1.753,0,0,1,.134-.952,7.088,7.088,0,0,0,.84-4.282M15.7,24.272a9.882,9.882,0,0,0-1.062-4.932,5.726,5.726,0,0,0-9.227-.853,8.145,8.145,0,0,0-1.682,5.626A.3.3,0,0,0,4,24.454a.949.949,0,0,1,.775,1.014,5.984,5.984,0,0,0,.124.964,5.055,5.055,0,0,0,4.13,3.789A4.974,4.974,0,0,0,14.32,27.1a1.725,1.725,0,0,0-.183-1.812,7.489,7.489,0,0,0-4.7-2.776,1.841,1.841,0,0,0-2.2.768,2.6,2.6,0,0,1-.42.439A.92.92,0,1,1,5.52,22.43c.48-.523.98-1.028,1.472-1.54a1.2,1.2,0,0,1,.985-.381A9.754,9.754,0,0,1,15.7,24.272m10.584,2.75a7.436,7.436,0,0,1-.006.9,1.106,1.106,0,0,0,.613,1.179c1.329.858,2.628,1.762,3.922,2.671a.584.584,0,0,0,.795,0c1.227-.864,2.447-1.743,3.721-2.534a1.57,1.57,0,0,0,.853-1.616c-.036-.576-.179-.554-.616-.36a10.409,10.409,0,0,1-6.828.643,17.916,17.916,0,0,1-2.454-.887m10.621,3.386c-.1.055-.169.091-.236.136-1.256.857-2.507,1.721-3.771,2.567-.291.195-.125.305.021.45.575.573,1.167,1.13,1.716,1.726.29.314.415.229.616-.08.774-1.189,1.572-2.362,2.357-3.544.1-.158.3-.32.076-.527-.261-.242-.445-.571-.781-.729m-7.109,2.9c-1.408-.964-2.747-1.9-4.111-2.8-.413-.273-.519.245-.743.419-.184.143-.443.294-.208.637.857,1.25,1.695,2.513,2.527,3.779.177.269.289.165.454,0,.674-.669,1.357-1.329,2.08-2.034M9.7,35c.977.043,1.52-.656,2.134-1.236.115-.109.045-.223,0-.334a2.375,2.375,0,0,1-.124-1.076c.039-.406-.09-.542-.5-.429a6.253,6.253,0,0,1-2.586.106c-.9-.129-.927-.123-.935.781,0,.323-.312.68-.092.926.561.627,1.127,1.305,2.1,1.262M49.71,32.41a.461.461,0,0,0,.135.5q.821.809,1.631,1.631c.149.152.266.213.446.027.563-.581,1.145-1.144,1.711-1.722a.786.786,0,0,0,.068-.86c-.091-.248-.388-.066-.588-.024a5.843,5.843,0,0,1-2.82-.03c-.486-.139-.667-.011-.582.474M3.485,28.049c-.165.642-.292,1.171-.439,1.694a.564.564,0,0,0,.136.652A7.121,7.121,0,0,0,5.54,31.851c.106.04.282.13.286-.042.009-.344.2-.751-.154-1.022a7.436,7.436,0,0,1-2.187-2.739m12.44.034a6.5,6.5,0,0,1-1.941,2.493,1.031,1.031,0,0,0-.432,1.039c.016.222.052.359.319.248a6.88,6.88,0,0,0,2.387-1.509c.112-.116.229-.221.173-.417-.165-.578-.318-1.16-.507-1.854" transform="translate(0 0.001)" fill="#fff"/>
    <path id="Path_16569" data-name="Path 16569" d="M464.035,315.952c0-.932-.007-1.863,0-2.795.006-.669.346-1.05.907-1.05s.913.388.916,1.051q.012,2.795,0,5.589a.918.918,0,1,1-1.821,0c-.01-.931,0-1.863,0-2.795" transform="translate(-407.363 -273.991)" fill="#fff"/>
    <path id="Path_16570" data-name="Path 16570" d="M33.75,325.225c0,.75.01,1.5,0,2.25a.914.914,0,1,1-1.819-.007q-.018-2.25,0-4.5a.91.91,0,1,1,1.817.007c.014.75,0,1.5,0,2.25" transform="translate(-28.02 -282.687)" fill="#fff"/>
    <path id="Path_16571" data-name="Path 16571" d="M159.809,330.971c0-.607-.018-1.214,0-1.82.024-.663.386-1.043.94-1.04a.888.888,0,0,1,.91.994q.043,1.849,0,3.7a.925.925,0,0,1-.9,1.023.955.955,0,0,1-.955-1.037c-.024-.606-.005-1.213-.005-1.82" transform="translate(-140.286 -288.04)" fill="#fff"/>
    <path id="Path_16572" data-name="Path 16572" d="M337.966,330.972c0,.586.01,1.173,0,1.759-.014.655-.369,1.067-.907,1.08a.933.933,0,0,1-.926-1.043q-.021-1.819,0-3.639c.008-.671.358-1.046.919-1.039s.9.4.913,1.062c.013.606,0,1.213,0,1.82" transform="translate(-295.072 -288.022)" fill="#fff"/>
    <path id="Path_16573" data-name="Path 16573" d="M198.489,67.895a15.716,15.716,0,0,1,6.82,1.463,7.213,7.213,0,0,1,1.626,1.165.906.906,0,0,1,.133,1.347.892.892,0,0,1-1.307.052,9.284,9.284,0,0,0-5.78-2.076,26.55,26.55,0,0,0-5.887.187c-.378.052-.467.192-.452.534.021.506.023,1.015,0,1.521-.033.684-.375,1.053-.931,1.054s-.909-.371-.935-1.05c-.024-.648-.032-1.3,0-1.946a1.94,1.94,0,0,1,1.785-1.9,33.106,33.106,0,0,1,4.926-.353" transform="translate(-168.336 -59.603)" fill="#fff"/>
    <path id="Path_16574" data-name="Path 16574" d="M393.347,159.844a17.469,17.469,0,0,1,5.7.971c.7.29.954.839.644,1.38a.888.888,0,0,1-1.211.375,14.661,14.661,0,0,0-4.941-.84,4.855,4.855,0,0,1-.544-.046.871.871,0,0,1-.852-.925.915.915,0,0,1,.943-.914,1.853,1.853,0,0,1,.266,0" transform="translate(-344.248 -140.319)" fill="#fff"/>
  </g>
</svg>
