<svg id="Group_15321" data-name="Group 15321" xmlns="http://www.w3.org/2000/svg" xmlns:xlink="http://www.w3.org/1999/xlink" width="47.901" height="52.568" viewBox="0 0 47.901 52.568">
  <defs>
    <clipPath id="clip-path">
      <rect id="Rectangle_1774" data-name="Rectangle 1774" width="47.901" height="52.568" fill="#fff"/>
    </clipPath>
  </defs>
  <g id="Group_15320" data-name="Group 15320" clip-path="url(#clip-path)">
    <path id="Path_16576" data-name="Path 16576" d="M37.325,52.567c-.483-.3-.884-.661-.781-1.3a1.112,1.112,0,0,1,1.2-.966c1.266-.016,2.532-.006,3.8-.006.77,0,1.541-.026,2.309.01.444.021.545-.141.534-.554-.027-1.009-.015-2.019-.007-3.028s.423-1.43,1.436-1.434c.907,0,1.814-.014,2.72.006.332.007.443-.089.436-.429-.02-1.026-.008-2.053-.007-3.08,0-1.255.373-1.632,1.608-1.632.753,0,1.506-.011,2.258.005.293.006.418-.047.418-.386q-.016-9.727,0-19.454c0-.373-.152-.4-.452-.4-2.207.009-4.414.014-6.62,0-.373,0-.446.119-.445.465.012,3.747.007,7.494.007,11.241,0,1.24-.386,1.63-1.613,1.632-1,0-1,0-1,.989,0,.41.018.823-.02,1.231-.071.757-.418,1.054-1.295,1.171-.587.078-.9.393-.916.909a.936.936,0,0,0,1.526.753c.1-.087.2-.192.3-.283a1.12,1.12,0,0,1,1.571-.036,1.134,1.134,0,0,1,.087,1.577,3.122,3.122,0,0,1-3.287,1.163,3.071,3.071,0,0,1-2.42-2.449,3.2,3.2,0,0,1,1.808-3.648c.293-.141.517-1.126.285-1.316-.077-.063-.223-.051-.339-.058a6.139,6.139,0,0,1-1.326-.075,1.064,1.064,0,0,1-.844-.971,5.35,5.35,0,0,1-.021-.615q0-10.215,0-20.429c0-1.266.341-1.6,1.616-1.6,2.583,0,5.166-.005,7.749.007a1.052,1.052,0,0,0,.77-.3q3.338-3,6.7-5.979a.987.987,0,0,0,.4-.877,8.976,8.976,0,0,1,.018-1.332,1.07,1.07,0,0,1,1.1-1.057q2.489-.027,4.978,0a1.1,1.1,0,0,1,1.119,1.1,1.114,1.114,0,0,1,.009.307,2.484,2.484,0,0,0,1.145,2.549c2.027,1.708,3.977,3.507,5.945,5.283a1.1,1.1,0,0,0,.82.306c1.06-.016,2.121-.008,3.182-.005.993,0,1.421.412,1.423,1.386q.008,3.8,0,7.6c0,.987-.414,1.379-1.423,1.38-2.788,0-5.577.01-8.365-.01-.414,0-.5.121-.5.513q.018,9.624,0,19.249c0,.371.074.507.473.49.785-.034,1.573-.012,2.36-.009,1,0,1.434.425,1.444,1.433.011,1.061.025,2.122-.008,3.182-.014.443.136.543.55.528.854-.031,1.71-.011,2.566-.009,1.078,0,1.476.4,1.48,1.492,0,1.009.016,2.019-.007,3.028-.009.378.1.5.487.5,1.71-.02,3.421-.018,5.132,0a1.127,1.127,0,0,1,1.232,1.416,1.325,1.325,0,0,1-.815.856Zm19.4-34.924q7.749,0,15.5,0c.831,0,.716.1.72-.694q.009-2.207,0-4.414c0-.764.113-.69-.675-.69q-15.294,0-30.587,0c-1.176,0-1.148,0-1.187,1.167-.016.493.152.578.6.577Q53,13.567,64.9,13.576a2.979,2.979,0,0,1,.813.073,1.12,1.12,0,0,1,.031,2.17,2.8,2.8,0,0,1-.812.08H41.689c-1.187,0-1.16,0-1.2,1.2-.015.479.147.554.578.553q7.826-.021,15.653-.009m2.31,32.648h7.951c1.368,0,2.736-.01,4.1.007.339,0,.445-.1.429-.436a12.472,12.472,0,0,1,0-1.64c.043-.51-.1-.654-.634-.652q-11.8.029-23.6.013c-.1,0-.206.008-.308,0-.244-.021-.329.084-.324.328.013.615.029,1.233,0,1.846-.023.419.1.547.531.545,3.95-.017,7.9-.01,11.849-.01m0-5.007c2.462,0,4.924-.008,7.385.009.379,0,.505-.089.485-.48-.034-.648-.028-1.3,0-1.948.014-.342-.1-.441-.434-.435-1.043.017-2.085.006-3.128.006-3.846,0-7.693.007-11.539-.01-.431,0-.56.12-.537.543a16.415,16.415,0,0,1,0,1.846c-.022.395.112.48.488.477,2.427-.017,4.855-.009,7.283-.009m-18.529-19.9q0,2.485,0,4.97c0,.6.077.726.624.543a2.442,2.442,0,0,1,1.718.005c.2.073.6.188.6-.334q-.013-5.15,0-10.3c0-.313-.134-.363-.4-.358-.7.013-1.4.025-2.1,0-.363-.015-.457.1-.453.455.019,1.674.008,3.348.008,5.021m16.2,4.549,5.821,3.831c.063-.048.088-.058.088-.068q.014-3.38.024-6.76c0-.387-.217-.2-.362-.117-.791.436-1.578.88-2.367,1.321l-3.2,1.794m4.722-5.271L55.55,20.921v7.027l5.882-3.284M55.517,31.9c0,2.156.006,4.173,0,6.189,0,.418.193.292.4.192l5.132-2.427c.078-.037.157-.067.177-.2L55.517,31.9M60.424,6.708c0-.735-.021-1.471.008-2.2a.926.926,0,0,0-.415-.91c-.338-.225-.584-.759-.938-.723-.335.034-.634.469-.938.74-.184.163-.4.284-.4.606.016,1.675.012,3.35,0,5.025,0,.25.088.322.327.317.649-.012,1.3-.026,1.948,0,.363.017.418-.133.411-.445-.018-.8-.006-1.607-.006-2.41M55.459,6l-3.973,3.55c1.338,0,2.524,0,3.709,0,.2,0,.266-.093.265-.28,0-1.037,0-2.074,0-3.273M62.7,6c0,1.19.007,2.227,0,3.263,0,.327.2.291.41.291,1.042,0,2.085,0,3.127,0,.1,0,.242.066.321-.112L62.7,6M57.548,40.052l.024.1c1.6,0,3.193,0,4.789,0,.284,0,.286-.164.285-.366,0-.58-.013-1.161,0-1.742.01-.329-.085-.378-.375-.237-.95.462-1.907.907-2.862,1.359l-1.866.885m.9-20.132-.031.1q1.988,1.269,3.976,2.537c.228.145.254,0,.254-.185q0-1.074,0-2.147c0-.165-.013-.306-.237-.305q-1.981,0-3.962,0" transform="translate(-32.771 0.001)" fill="#fff"/>
    <path id="Path_16577" data-name="Path 16577" d="M.757,491.264c-.716-.527-.927-1.1-.62-1.666a1.078,1.078,0,0,1,1.2-.585,1.059,1.059,0,0,1,.91.908,1.054,1.054,0,0,1-.472,1.149c-.093.071-.2.13-.294.194Z" transform="translate(0 -438.696)" fill="#fff"/>
    <path id="Path_16578" data-name="Path 16578" d="M344.157,132.347a1.146,1.146,0,0,1,1.164,1.115,1.212,1.212,0,0,1-1.195,1.16,1.187,1.187,0,0,1-1.107-1.134,1.14,1.14,0,0,1,1.138-1.141" transform="translate(-307.734 -118.733)" fill="#fff"/>
  </g>
</svg>
