<svg xmlns="http://www.w3.org/2000/svg" width="14.03" height="10.302" viewBox="0 0 14.03 10.302">
  <g id="Group_6" data-name="Group 6" transform="translate(-1497.87 -4022.197)">
    <g id="Group_150" data-name="Group 150" transform="translate(1498.368 4022.697)">
      <path id="Subtraction_1" data-name="Subtraction 1" d="M4.019,9.3c-.588,0-1.074,0-1.531,0A2.429,2.429,0,0,1,.063,7.343a2.781,2.781,0,0,1-.057-.6C0,5.476,0,4,0,2.561A2.457,2.457,0,0,1,2.1.029,2.143,2.143,0,0,1,2.485,0H4.1L7.12,0c1.312,0,2.4,0,3.438,0a2.455,2.455,0,0,1,1.565.543,2.486,2.486,0,0,1,.852,1.423,2.848,2.848,0,0,1,.055.6c0,1.257.007,2.719,0,4.158a2.459,2.459,0,0,1-2.108,2.545,2.362,2.362,0,0,1-.4.025h-6.5Zm.79-6.648V6.648l1.641-.953L8.243,4.656l-3.433-2Z" transform="translate(0 0)" fill="#011555" stroke="rgba(0,0,0,0)" stroke-width="1"/>
    </g>
  </g>
</svg>
