<svg id="Group_15287" data-name="Group 15287" xmlns="http://www.w3.org/2000/svg" xmlns:xlink="http://www.w3.org/1999/xlink" width="46.838" height="27.327" viewBox="0 0 46.838 27.327">
  <defs>
    <clipPath id="clip-path">
      <rect id="Rectangle_1750" data-name="Rectangle 1750" width="46.838" height="27.327" fill="none"/>
    </clipPath>
  </defs>
  <rect id="Rectangle_1749" data-name="Rectangle 1749" width="46.838" height="27.327" fill="#3d9635"/>
  <g id="Group_15286" data-name="Group 15286">
    <g id="Group_15285" data-name="Group 15285" clip-path="url(#clip-path)">
      <path id="Path_16536" data-name="Path 16536" d="M9.507,5.834c-.046.638-.1,1.767.438,1.881.655.06.294-1.112.529-1.326.046-.1.128-.1.135.028v1a.474.474,0,0,0,.374.48c.172-.011.286-.006.353.163q.042.858.08,1.717s.4.12.42-.964a10.091,10.091,0,0,1-.042-1.292c0-.12.156-.131.267-.066.172.12.248.268.514.208.406-.114.648-.306.655-.622a2.717,2.717,0,0,0-.183-.888c.018-.056-.08-.191-.06-.246.073.114.181.1.207,0a.885.885,0,0,0-.347-.54c-.145-.126-.357-.1-.434.169a1.469,1.469,0,0,0,.334.955.928.928,0,0,1,.082.479A.261.261,0,0,1,12.5,6.9s-.327-.246-.327-.294a1.166,1.166,0,0,0-.027-.769,1,1,0,0,0-.215-.414c-.08-.092-.188-.092-.241,0a1.444,1.444,0,0,0,.027,1.015c.073.218.188.353.135.353-.045.126-.137.094-.2-.049a3.546,3.546,0,0,1-.112-.932c-.029-.244-.063-.768-.223-.9-.1-.131-.246-.066-.3.06a4.577,4.577,0,0,0,.017.709,7.728,7.728,0,0,1,.2,1.144c.014.54-.31.234-.3-.038a2.473,2.473,0,0,0-.011-1.031c-.053-.141-.116-.174-.247-.147-.1-.011-.367.278-.44.758a4.071,4.071,0,0,0-.091.469c-.038.246-.2.42-.313-.039-.1-.332-.16-1.15-.325-.959" transform="translate(3.749 1.913)" fill="#fff"/>
      <path id="Path_16537" data-name="Path 16537" d="M11.261,7.5c-.579.289-1.14.551-1.711.823a1.747,1.747,0,0,1,1.354-1.1c.352.011.262.135.357.272" transform="translate(3.777 2.86)" fill="#fff"/>
      <path id="Path_16538" data-name="Path 16538" d="M13.205,4.841a.513.513,0,0,0-.109.032.318.318,0,0,0-.229.4c.165,1,.269,1.767.434,2.765a.214.214,0,0,1-.2.261c-.216-.147-.271-.447-.638-.43a.724.724,0,0,0-.611.572,1.452,1.452,0,0,0,0,.653.536.536,0,0,0,.611.154c.16-.066.3-.229.353-.191.035.066-.006.589-.762.987-.468.208-.837.262-1.037-.12-.121-.24.008-1.144-.293-.938-.9,2.322,2.106,2.65,2.444.1.021-.071.089-.142.135-.126.024.011.039.038.045.092-.07,2.307-2.325,2.459-2.709,1.739a2.186,2.186,0,0,1-.135-.779.413.413,0,0,0-.092-.257c-.091-.066-.214.114-.241.426a2.8,2.8,0,0,0-.027.555c.12,1.832,3.026,1.047,3.5-.463a5.125,5.125,0,0,0,.074-1.439h.01l.007-.006c.294.311.695.038.784-.066a.136.136,0,0,1,.2-.021.465.465,0,0,0,.7-.2,6.826,6.826,0,0,0,.1-.867.8.8,0,0,0-.313.131.078.078,0,0,0-.024.043c-.011.077-.024.163-.036.246l-.007.021a.059.059,0,0,1-.029.022.1.1,0,0,1-.147-.066c-.068-.311-.354-.36-.529.131-.12.1-.329.114-.353-.022.029-.332-.1-.375-.371-.223-.084-.655-.172-1.276-.257-1.93.113,0,.211.082.314-.043A3.7,3.7,0,0,0,13.3,4.878h0c-.006-.006-.014-.017-.021-.022l-.008-.006h-.008l-.015-.01c-.013,0-.025-.006-.038,0M12.4,8.422a.152.152,0,0,1,.159.1.175.175,0,0,1-.032.174h0c-.024.039-.1.022-.156.022a.147.147,0,0,1-.142-.071c-.021-.06.036-.12.064-.169h0l.01-.017a.234.234,0,0,1,.1-.038" transform="translate(4.013 1.914)" fill="#fff"/>
      <path id="Path_16539" data-name="Path 16539" d="M14.165,4.8a.591.591,0,0,0-.2.054.4.4,0,0,0-.068.518c.114.049.229.169.151.229-.321.343-1.164.922-1.206,1.031v.006l0,0h.007a2.147,2.147,0,0,0,.628.006V6.643h0A8.616,8.616,0,0,0,14.516,5.6c-.042-.038-.085-.064-.13-.1a.07.07,0,0,1,0-.12.345.345,0,0,0,.036-.523.516.516,0,0,0-.258-.049m-.039.3c.053-.006.114.049.145.114s.017.142-.035.158a.17.17,0,0,1-.159-.109c-.035-.077-.015-.147.039-.158l.01-.006" transform="translate(5.078 1.899)" fill="#fff"/>
      <path id="Path_16540" data-name="Path 16540" d="M9.673,8.629a1.7,1.7,0,0,0-.172,1.5.362.362,0,0,0,.364.12.666.666,0,0,0,.241-.643c-.067-.109-.12-.126-.188-.032-.141.283-.2.087-.214-.077a3.716,3.716,0,0,1,.039-.807c.035-.223,0-.158-.071-.066" transform="translate(3.715 3.379)" fill="#fff"/>
      <path id="Path_16541" data-name="Path 16541" d="M20.33,9.335c-.308-.67-.738-1.33-.875-1.581S18.286,6,18.134,5.829c-.336-.4.544.169-.112-.627-.248-.212-.264-.223-.474-.4-.1-.077-.36-.208-.4.011a1.258,1.258,0,0,0,.021.474,1.672,1.672,0,0,0,.265.4A29.611,29.611,0,0,1,20.3,10.3c.142-.066.113-.855.028-.97" transform="translate(6.776 1.857)" fill="#fff"/>
      <path id="Path_16542" data-name="Path 16542" d="M18.452,11.527c-.063.066.148.366.426.36a1.6,1.6,0,0,0,1.238-.992,1.76,1.76,0,0,0,.285-.763,16.793,16.793,0,0,0-.31-3.86.6.6,0,0,1,.011-.267c.029-.038.13,0,.184-.088.08-.081-.208-.747-.371-1-.059-.114-.08-.191-.176.011a1.464,1.464,0,0,0-.16.73c.219,1.516.286,2.851.431,4.367a.607.607,0,0,1-.107.447,4.227,4.227,0,0,1-1.45,1.058" transform="translate(7.294 1.899)" fill="#fff"/>
      <path id="Path_16543" data-name="Path 16543" d="M22.975,11.535c-.332.191-.332.414-.063.42a1.651,1.651,0,0,0,1.38-.66,2.17,2.17,0,0,0,.223-.85,20.009,20.009,0,0,0-.25-4.171,1.8,1.8,0,0,1-.046-.392c.031-.071.18.011.23-.075.081-.077-.385-.682-.551-.938-.056-.114-.077-.191-.173.015a1.163,1.163,0,0,0-.095.726,40.206,40.206,0,0,1,.462,4.71,1.38,1.38,0,0,1-.093.387,2.789,2.789,0,0,1-.449.529c-.152.109-.472.218-.575.3" transform="translate(8.985 1.881)" fill="#fff"/>
      <path id="Path_16544" data-name="Path 16544" d="M23.377,10.063c-.006-.387.011-.72-.006-1.009s-.145-1.368-.187-1.6-.091-.583-.154-.861a2.279,2.279,0,0,1-.057-.491c.025-.077.131.006.179-.087a3.032,3.032,0,0,0-.435-1.211c-.06-.114-.174-.075-.31.109-.133.12-.084.394-.035.655a24.077,24.077,0,0,1,.525,5.173c-.018.137.486-.42.48-.681" transform="translate(8.829 1.876)" fill="#fff"/>
      <path id="Path_16545" data-name="Path 16545" d="M21.557,7.4c-.208-.006-.645-.4-.772-.638a.454.454,0,0,1,.025-.343c.078-.049.2-.109.283-.049,0,0,.092.126.075.141.113.054.162.022.174-.027.007-.077-.036-.126-.036-.214a.242.242,0,0,1,.43-.124.876.876,0,0,1,.116.424c0,.071-.113-.011-.176.006s-.08.088-.085.154c-.013.179-.032.458-.035.67" transform="translate(8.212 2.396)" fill="#fff"/>
      <path id="Path_16546" data-name="Path 16546" d="M18.867,10.493a17.968,17.968,0,0,0-.025-1.908c-.018-.731-.141-2.142-.2-2.377-.066-.448.181.049.145-.214a2.834,2.834,0,0,0-.614-1.15c-.094-.131-.089-.158-.234.033a1.365,1.365,0,0,0,.02.893,16.584,16.584,0,0,1,.387,2.6,23.213,23.213,0,0,1,.024,2.758c.156,0,.407-.255.494-.632" transform="translate(7.068 1.875)" fill="#fff"/>
      <path id="Path_16547" data-name="Path 16547" d="M24.572,9.646c-.364-.615-.918-1.336-1.066-1.581s-1.4-2.077-1.555-2.24c-.458-.474.209-.077-.085-.454a3.742,3.742,0,0,0-.541-.523c-.106-.064-.173-.2-.209.022a4.681,4.681,0,0,0-.015.6.753.753,0,0,0,.183.37,34.4,34.4,0,0,1,3.284,4.77c.14-.064.091-.855.006-.964" transform="translate(8.343 1.878)" fill="#fff"/>
      <path id="Path_16548" data-name="Path 16548" d="M23.968,13.457h0a.307.307,0,0,0-.1.567c-3.422,0-8.673-.054-9.8-.054-.632,0-2.624-.075-2.66-.075a2.03,2.03,0,0,0,1.853.763c1.521,0,8.56-.017,10.561-.017a.693.693,0,0,0,.126.73l.008.006a.012.012,0,0,0,.013.006h.006c.134.033.193-.066.239-.131a13.962,13.962,0,0,0,1.535-.006c.075.11.152.214.293.2.25-.054.447-.082.455-.589,0,0-.027-.861-.593-.807-.135.017-.509.054-.509.054-.437-.049-.758-.054-1.248-.077.046-.054.124-.289.028-.37a.172.172,0,0,0-.119-.033h-.008l-.011-.01V13.6a.9.9,0,0,1-.054-.148h-.011Zm.232,1.232h0c.5.022.964.006,1.467.028a.181.181,0,0,1-.014.25c0,.006-.006.006-.007.006h-.014c-.162-.006-.254-.006-.416-.011,0-.011-.006-.015-.006-.027-.04-.114-.317-.1-.384-.011h0l0,.006,0,.011v.01l0,.017a3.624,3.624,0,0,1-.638-.021c-.061-.077-.054-.219.021-.257" transform="translate(4.512 5.323)" fill="#fff"/>
      <path id="Path_16549" data-name="Path 16549" d="M14.235,5.391c-.332.949.193,2,.555,1.9.262.1.427-.4.536-.942.075-.154.13-.17.167-.094-.01.731.052.895.239,1.112a.6.6,0,0,0,.79.011c.027-.022.325-.322.325-.322a.193.193,0,0,1,.271-.01c.1.087.085.244.3.349a.641.641,0,0,0,.649-.137c.12-.2.147-.272.2-.349.087-.114.23-.066.23-.028-.013.066-.095.126-.042.24.1.077.127.028.188.011.212-.1.371-.561.371-.561.007-.174-.088-.159-.154-.12s-.084.066-.166.114c-.1.011-.3.081-.4-.071a6.337,6.337,0,0,1-.183-.632c0-.011-.133-.289-.008-.311.061.011.2.049.219-.066.067-.109-.142-.424-.283-.578a.31.31,0,0,0-.461-.015c-.114.1-.1.229-.123.338a.523.523,0,0,0,.11.458,1.4,1.4,0,0,1,.255.932.383.383,0,0,1-.338.174c-.087-.022-.234-.06-.311-.627-.056-.437.015-1.047-.17-1.326-.066-.174-.113-.343-.275-.043a.675.675,0,0,0-.095.649,1.925,1.925,0,0,1,.1,1.009,1.762,1.762,0,0,1-.194.278.326.326,0,0,1-.41.054.442.442,0,0,1-.244-.343,4.985,4.985,0,0,0-.042-1.118.2.2,0,0,0-.335-.071,2.513,2.513,0,0,0-.614,1.26c-.1.3-.2.218-.268.092-.172-.158-.184-1.422-.392-1.216" transform="translate(5.589 1.832)" fill="#fff"/>
      <path id="Path_16550" data-name="Path 16550" d="M16.105,6.586c0,.006,0,.006-.01.006l0,0c-.022.011-.05.05-.107.093-.1.114-.113.191-.107.409,0,.027.183.523.336.878a2.725,2.725,0,0,1,.128,1.182A2.9,2.9,0,0,1,15.15,10.4a.607.607,0,0,1-.5,0V10.4a.3.3,0,0,1-.135-.283h0a2.835,2.835,0,0,0,1.2-1.238,1.283,1.283,0,0,0,.033-.893.875.875,0,0,0-.205-.409l0-.006c.067-.033.24.1.269.015a1.3,1.3,0,0,0-.343-.632.293.293,0,0,0-.424-.027c-.144.081-.173.37-.106.627.077.186.289.218.438.6v.006a.737.737,0,0,1-.025.4,4.557,4.557,0,0,1-.9.839l-.006.006V9.4h-.01l0-.006a.863.863,0,0,0,0-.126c0-.109.045-.37.042-.419h0V8.848h0c-.257.169-.343.681-.391.833a11.586,11.586,0,0,0-1.824,1.249c-.223.343,1.535-.4,1.739-.491l.008.006c.038.039.038.186.156.322a.929.929,0,0,0,.949.31,3.032,3.032,0,0,0,1.373-1.144c.052-.077.137-.137.212-.077a2.147,2.147,0,0,0,1.944,1.02c.219-.268.116-.4.027-.452-.029-.022-.474-.2-.543-.371-.042-.158.061-.3.275-.409A9.482,9.482,0,0,0,20.2,9.3a1.538,1.538,0,0,1,.2-.615.294.294,0,0,1,.1-.11l0-.006h0v0l0-.011-.1-.06-1.951-.011a.277.277,0,0,1-.054-.028h0v0h0l0-.006h0V8.428l0-.006a.109.109,0,0,1,.06-.038c.469-.06,1.3-.2,1.348-1a.691.691,0,0,0-.685-.758.7.7,0,0,0-.6.79c-.015.1.039.317-.07.338-.719.071-1.5.519-1.53.84H16.9L16.9,8.6h-.01L16.881,8.6a.178.178,0,0,1-.1-.2,3.839,3.839,0,0,0-.493-1.668c-.1-.1-.145-.141-.174-.147h-.013Zm2.851.713a.231.231,0,0,1,.152.039.192.192,0,0,1,.12.163v.011h0l0,.006v0l-.013.011c-.038.039-.121.033-.2-.015a.211.211,0,0,1-.12-.159V7.354l.008-.015.006-.011.01-.011a.062.062,0,0,1,.046-.017M17.142,8.946h.024a5.572,5.572,0,0,0,.816.092c.226.017.338.191.126.268s-.41.126-.41.43c.027.148.022.229,0,.262l-.007.011v.006h0v.006h-.006l-.01,0-.008.006c-.052.006-.124-.049-.18-.07a1.134,1.134,0,0,1-.541-.8.206.206,0,0,1,.2-.212" transform="translate(4.843 2.605)" fill="#fff"/>
      <path id="Path_16551" data-name="Path 16551" d="M11.305,5.337c.226.1.648.06.629-.3,0-.032-.007-.141-.01-.169-.043-.109-.172-.087-.2.028-.01.032.013.092-.018.114s-.091.006-.089-.094a.146.146,0,0,0-.038-.087.06.06,0,0,0-.05-.017c-.029.006-.029.011-.043.038a.219.219,0,0,0-.018.082c-.006.038-.02.049-.046.054s-.021.006-.046-.011-.033-.021-.033-.049a.4.4,0,0,0-.011-.087.1.1,0,0,0-.056-.033c-.123,0-.131.142-.123.2-.011.011-.015.261.151.332" transform="translate(4.41 1.897)" fill="#fff"/>
      <path id="Path_16552" data-name="Path 16552" d="M16.026,7.338c.225.1.759.043.631-.306a1.62,1.62,0,0,0-.014-.169c-.045-.109-.169-.081-.2.028-.007.038.017.1-.015.12s-.091,0-.089-.1a.13.13,0,0,0-.038-.081.062.062,0,0,0-.05-.017c-.029.006-.029.011-.047.038a.317.317,0,0,0-.017.082c0,.038-.017.049-.045.054s-.02.006-.045-.011-.033-.021-.033-.049a.225.225,0,0,0-.014-.087A.091.091,0,0,0,16,6.809c-.121,0-.128.142-.124.2-.007.006-.013.255.154.332" transform="translate(6.277 2.687)" fill="#fff"/>
      <path id="Path_16553" data-name="Path 16553" d="M18.78,6.508c.223.1.646.054.628-.306,0-.027-.007-.135-.01-.169-.047-.1-.174-.081-.2.033-.011.032.013.092-.021.109-.015.021-.089.011-.087-.094A.185.185,0,0,0,19.055,6a.1.1,0,0,0-.049-.006c-.029,0-.029.006-.047.032a.289.289,0,0,0-.018.088.046.046,0,0,1-.045.049c-.027,0-.024.006-.043-.011s-.033-.021-.033-.049a.375.375,0,0,0-.014-.092.149.149,0,0,0-.054-.022c-.123,0-.133.142-.124.191-.008.011-.014.261.154.332" transform="translate(7.366 2.36)" fill="#fff"/>
      <path id="Path_16554" data-name="Path 16554" d="M20.231,9.888a1.372,1.372,0,0,0-.131,1.33,1.054,1.054,0,0,0,.484.551.335.335,0,0,0,.507-.054c.229-.24.234-.846.341-.966a.2.2,0,0,1,.359-.087.968.968,0,0,0,.329.283.551.551,0,0,0,.723.049.807.807,0,0,0,.385-.469,17.016,17.016,0,0,0,.029-2.759c-.011-.064-.222-1.133-.222-1.144s-.031-.544-.052-.67c-.006-.054-.018-.071.036-.066.057.054.063.06.1.071.057.01.109-.088.075-.18-.177-.328-.359-.66-.537-.981-.04-.05-.1-.094-.167,0a.391.391,0,0,0-.131.294c.017.234.057.474.073.709.073.4.144.8.215,1.2.067.857.087,1.641.154,2.5-.011.359-.121.844-.232.888,0,0-.156.1-.267-.006a3.213,3.213,0,0,1-.394-.523.238.238,0,0,0-.382,0,5.288,5.288,0,0,0-.671,1.266c-.057.087-.212.163-.384-.006a1.789,1.789,0,0,1-.239-1.238" transform="translate(7.905 1.876)" fill="#fff"/>
      <path id="Path_16555" data-name="Path 16555" d="M18.881,4.85a.732.732,0,0,1,.3.687c-.04.246-.147.518-.223.48s.056-.246-.022-.469c-.047-.147-.32-.409-.292-.491-.057-.163.117-.239.241-.207" transform="translate(7.368 1.915)" fill="#fff"/>
      <path id="Path_16556" data-name="Path 16556" d="M20.923,10.121a6.027,6.027,0,0,0-.042-1.079c-.013-.285-.324-2.622-.389-2.841-.075-.409.3-.054.261-.294-.131-.3-.458-.741-.558-1-.066-.114-.039-.214-.177-.028A2.312,2.312,0,0,0,19.893,5.9a22.358,22.358,0,0,1,.617,4.928c.155,0,.335-.354.413-.709" transform="translate(7.861 1.888)" fill="#fff"/>
      <path id="Path_16557" data-name="Path 16557" d="M23.153,5.264c.188.1.294.606.274.752-.035.267-.131.555-.2.518s.014-.4-.022-.507c-.043-.158-.292-.447-.265-.534a.176.176,0,0,1,.216-.229" transform="translate(9.068 2.08)" fill="#fff"/>
      <path id="Path_16558" data-name="Path 16558" d="M13.377,7.943c.173.066.278.441.258.551-.036.2-.128.4-.194.381s.015-.294-.022-.377c-.013-.2-.257-.3-.251-.392-.047-.158.1-.186.209-.163" transform="translate(5.205 3.139)" fill="#fff"/>
      <path id="Path_16559" data-name="Path 16559" d="M10.013,4.76c.258.077.274.458.257.572-.035.2-.127.42-.2.392s0-.3-.038-.387c-.036-.126-.255-.338-.23-.4-.05-.137.1-.2.207-.174" transform="translate(3.875 1.88)" fill="#fff"/>
      <path id="Path_16560" data-name="Path 16560" d="M13.678,6.057a.461.461,0,0,0-.151.615.3.3,0,0,0,.321.1c.2.027.311-.366.311-.366s.006-.109-.225.1c-.1.022-.11-.015-.135-.07a.492.492,0,0,1,.029-.306c.036-.1-.039-.142-.151-.071" transform="translate(5.326 2.382)" fill="#fff"/>
      <path id="Path_16561" data-name="Path 16561" d="M14.774,4.662a.718.718,0,0,0-.3.512c-.008.131-.032.131.054.218.066.094.13.082.257.011a.263.263,0,0,0,.123-.174c.031-.152-.159.071-.186-.1s.081-.218.2-.377c0-.1,0-.174-.144-.092" transform="translate(5.72 1.83)" fill="#fff"/>
      <path id="Path_16562" data-name="Path 16562" d="M15.574,4.86a3.2,3.2,0,0,0-.087.594c-.036.147.156.212.24.021a1.741,1.741,0,0,0,.137-.648c-.038-.225-.191-.214-.29.032" transform="translate(6.124 1.846)" fill="#fff"/>
      <path id="Path_16563" data-name="Path 16563" d="M20.991,7.783c.028-.022,1.068-.763,1.068-.763.106-.038.082.382.035.377a4.088,4.088,0,0,1-1.1.768c-.05.033-.1-.289,0-.381" transform="translate(8.279 2.776)" fill="#fff"/>
      <path id="Path_16564" data-name="Path 16564" d="M21.717,7.565c.186.092.258.627.237.775.007.283-.177.512-.248.479s.008-.353-.027-.469c-.045-.158-.2-.452-.173-.539a.181.181,0,0,1,.211-.246" transform="translate(8.502 2.99)" fill="#fff"/>
      <path id="Path_16565" data-name="Path 16565" d="M17.227,9.3a1.551,1.551,0,0,1,.3-.257.181.181,0,0,1,.2.039c.017.1-.064.2-.039.332.021.054.039.12.14.092a.7.7,0,0,1,.483-.141c.13,0,.131.218.054.218a3.582,3.582,0,0,0-.661.234.149.149,0,0,1-.191-.027.191.191,0,0,1-.02-.191c.01-.109-.035-.169-.127-.163-.07.043-.13.066-.165-.011-.011-.06-.017-.094.028-.126" transform="translate(6.8 3.569)" fill="#fff"/>
      <path id="Path_16566" data-name="Path 16566" d="M22.505,9.511a.136.136,0,0,1,0,.2c-.077.07-.126.1-.2.174-.033.059-.054.147.049.174.194.054.645-.234.645-.246a.133.133,0,0,0,.043-.159c-.043-.049-.137-.021-.2-.021-.031,0-.131-.022-.084-.1a.859.859,0,0,0,.082-.159c.029-.07.006-.114-.107-.152a.934.934,0,0,0-.279,0c-.067.017-.089.049-.1.126,0,.12.078.114.158.163" transform="translate(8.811 3.643)" fill="#fff"/>
    </g>
  </g>
</svg>
