<svg id="Group_15334" data-name="Group 15334" xmlns="http://www.w3.org/2000/svg" xmlns:xlink="http://www.w3.org/1999/xlink" width="73.789" height="73.788" viewBox="0 0 73.789 73.788">
  <defs>
    <clipPath id="clip-path">
      <rect id="Rectangle_1781" data-name="Rectangle 1781" width="73.789" height="73.788" fill="none"/>
    </clipPath>
  </defs>
  <g id="Group_15333" data-name="Group 15333" clip-path="url(#clip-path)">
    <path id="Path_16590" data-name="Path 16590" d="M37.458,0a18.357,18.357,0,0,1,3.764,2.857c4.579,3.764,9.13,7.563,13.692,11.348.088.073.189.13.288.2.211-.2.116-.424.118-.622.01-1.32,0-2.641.008-3.961A2.406,2.406,0,0,1,57.66,7.373c2.136-.041,4.274-.045,6.41,0A2.452,2.452,0,0,1,66.4,9.982c.008,4.345.014,8.691-.011,13.036a1.375,1.375,0,0,0,.581,1.2q2.851,2.314,5.656,4.684a2.5,2.5,0,0,1,.312,3.99c-.792.9-1.593,1.8-2.384,2.7-1.4,1.6-2.234,1.761-4.151.719v.866c0,11.212-.022,22.424.024,33.635a2.769,2.769,0,0,1-2.957,2.972q-26.612-.067-53.225-.027c-1.973,0-2.889-.924-2.889-2.916q0-16.817,0-33.635v-.951a2.809,2.809,0,0,1-2.226.675,2.59,2.59,0,0,1-1.476-.83C2.637,34.955,1.612,33.81.61,32.646A7.762,7.762,0,0,1,0,31.7V30.4a4.8,4.8,0,0,1,1.541-1.843q15.09-12.5,30.176-25.011A26.921,26.921,0,0,1,36.306,0Zm-.546,71.309q13.07,0,26.141.015c.665,0,.892-.122.89-.848q-.037-17.823-.007-35.647a1.337,1.337,0,0,0-.552-1.149Q50.433,22.963,37.512,12.21a.8.8,0,0,0-1.249,0Q23.316,22.983,10.335,33.719a1.269,1.269,0,0,0-.505,1.1q.016,17.859-.006,35.719c0,.645.179.789.8.788q13.143-.032,26.285-.014M5.617,34.4c.153-.123.322-.257.488-.394L35.818,9.367a1.357,1.357,0,0,1,2.1-.026q7.262,6.021,14.521,12.045,7.675,6.368,15.342,12.747c.368.307.56.257.847-.085.71-.845,1.437-1.679,2.2-2.478.369-.388.429-.585-.045-.978Q54.056,16.745,37.375,2.847c-.5-.417-.735-.168-1.077.116Q27.544,10.23,18.784,17.491,10.858,24.064,2.93,30.635c-.256.212-.489.359-.152.725.847.917,1.657,1.868,2.486,2.8.088.1.152.251.352.238M63.924,21.665c0-3.934,0-7.65.005-11.366,0-.41-.211-.465-.544-.464-1.68.007-3.359.015-5.039,0-.431-.005-.589.119-.578.568a22.149,22.149,0,0,1-.018,3.451A3.9,3.9,0,0,0,59.8,18.257a1.142,1.142,0,0,1,.165.138l3.955,3.27" fill="#1a1818"/>
    <path id="Path_16591" data-name="Path 16591" d="M115.124,188.978a11.083,11.083,0,0,1-12.512-9.423,9.125,9.125,0,0,1-.075-1.437,2.463,2.463,0,0,1,4.163-1.771c.9.861,1.778,1.753,2.649,2.647a.843.843,0,0,0,.827.276c1.182-.2,2.365-.385,3.555-.523.4-.046.512-.2.561-.564.155-1.187.344-2.371.527-3.554a.928.928,0,0,0-.306-.894c-.834-.795-1.643-1.616-2.452-2.436a2.45,2.45,0,0,1-.654-2.819,2.671,2.671,0,0,1,2.56-1.532,11.026,11.026,0,0,1,10.528,12.83.71.71,0,0,0,.191.649c1.481,1.689,1.384,1.582,3.056.17a6.268,6.268,0,0,0,2.168-4.413,3.324,3.324,0,0,1,2.009-2.753c1.893-.98,3.738-2.055,5.607-3.082a2.535,2.535,0,0,1,3.444.477c.632.624,1.269,1.244,1.881,1.887a2.416,2.416,0,0,1,.442,3.037c-1.174,2.171-2.38,4.325-3.588,6.478a2.468,2.468,0,0,1-1.766,1.241c-.517.1-1.03.243-1.551.3a4.235,4.235,0,0,0-3.059,1.632,14.929,14.929,0,0,1-1.518,1.535c-.254.24-.268.419.011.631a1.658,1.658,0,0,1,.306.3c1.032,1.338,2.233,2.263,4.059,1.683a11.078,11.078,0,0,1,11.051,10.8,2.427,2.427,0,0,1-1.52,2.457,2.381,2.381,0,0,1-2.762-.6c-.835-.828-1.672-1.656-2.488-2.5a.867.867,0,0,0-.879-.287c-1.157.2-2.322.344-3.488.48a.623.623,0,0,0-.642.612c-.153,1.188-.313,2.376-.5,3.559a.922.922,0,0,0,.332.882q1.216,1.177,2.4,2.387a2.407,2.407,0,0,1,.65,2.877,2.519,2.519,0,0,1-2.559,1.5,11.089,11.089,0,0,1-10.626-11.776c.032-.382.089-.761.122-1.143.041-.469-.123-.688-.627-.511-.655.229-1.324.421-1.974.663a2.462,2.462,0,0,0-1.517,1.538,6.268,6.268,0,0,1-1.581,2.369c-2.3,2.282-4.57,4.6-6.878,6.871a6.584,6.584,0,0,1-7.878,1.187,6.2,6.2,0,0,1-1.487-9.6c2.522-2.7,5.2-5.25,7.824-7.858a3.661,3.661,0,0,1,1.453-.909,3.126,3.126,0,0,0,2.214-2.421,3.984,3.984,0,0,0,.294-1.142M105,178.159a8.689,8.689,0,0,0,.406,2.469,8.538,8.538,0,0,0,10.043,5.763,1.744,1.744,0,0,1,1.771.458q5.046,5.089,10.131,10.139a1.644,1.644,0,0,1,.49,1.686,8.554,8.554,0,0,0,5.594,10.087,4.97,4.97,0,0,0,2.464.308c-.947-1.039-1.94-2.009-2.953-2.956a1.641,1.641,0,0,1-.552-1.547q.423-2.844.816-5.692a1.372,1.372,0,0,1,1.339-1.26c1.637-.23,3.282-.421,4.906-.722a2.485,2.485,0,0,1,2.607.869c.8.935,1.735,1.759,2.689,2.71,0-.3.017-.47,0-.631a8.554,8.554,0,0,0-10.447-7.563,1.766,1.766,0,0,1-1.8-.532q-5-5.032-10.038-10.029a1.752,1.752,0,0,1-.511-1.814,8.545,8.545,0,0,0-4.249-9.4,6.583,6.583,0,0,0-3.8-.906c.933,1.046,1.912,2.023,2.928,2.962a1.7,1.7,0,0,1,.557,1.616c-.279,1.872-.565,3.744-.827,5.619a1.311,1.311,0,0,1-1.264,1.236c-1.757.239-3.522.442-5.263.767a2.072,2.072,0,0,1-2.113-.685c-.893-.962-1.846-1.868-2.924-2.947m12.327,12.386c-.14.392-.256.748-.392,1.1a4.9,4.9,0,0,1-2.737,2.9,6.148,6.148,0,0,0-2.1,1.454c-1.7,1.727-3.422,3.431-5.135,5.145-.577.577-1.171,1.138-1.722,1.738a3.627,3.627,0,0,0-.8,3.931,3.494,3.494,0,0,0,3.193,2.41,4.293,4.293,0,0,0,3.486-1.4q3.427-3.444,6.866-6.875a2.5,2.5,0,0,0,.681-.916,5.433,5.433,0,0,1,3.9-3.685c.561-.159.266-.353.06-.559q-2.518-2.52-5.038-5.038a2.869,2.869,0,0,0-.26-.2M138.969,172.4c-.132.065-.241.114-.345.172-1.926,1.07-3.847,2.149-5.78,3.206a1.015,1.015,0,0,0-.477.82c-.928,4.281-.139,2.869-3.02,5.847-.427.441-1.227.831-1.157,1.358.066.5.8.892,1.216,1.357.247.277.411.282.673.008.83-.866,1.7-1.691,2.527-2.561a3.293,3.293,0,0,1,1.869-.985c.824-.151,1.647-.3,2.466-.479.289-.062.585-.088.77-.428,1.051-1.936,2.126-3.859,3.205-5.78.149-.265.189-.459-.054-.692-.554-.531-1.086-1.085-1.63-1.626a3.336,3.336,0,0,0-.265-.218" transform="translate(-87.009 -142.847)" fill="#1a1818"/>
  </g>
</svg>
