<svg id="Group_15315" data-name="Group 15315" xmlns="http://www.w3.org/2000/svg" xmlns:xlink="http://www.w3.org/1999/xlink" width="78.566" height="48.473" viewBox="0 0 78.566 48.473">
  <defs>
    <clipPath id="clip-path">
      <rect id="Rectangle_1771" data-name="Rectangle 1771" width="78.566" height="48.473" fill="#fff"/>
    </clipPath>
  </defs>
  <g id="Group_15314" data-name="Group 15314" clip-path="url(#clip-path)">
    <path id="Path_16567" data-name="Path 16567" d="M78.566,22.855a3.277,3.277,0,0,1-2.153,1.891c-1.75.63-3.472,1.34-5.194,2.047a2.518,2.518,0,0,1-2.8-.277c-.26-.22-.446-.135-.677.015-1.2.777-2.4,1.557-3.613,2.311-.317.2-.416.387-.275.737a4.561,4.561,0,0,1-4.845,5.984c-.491-.056-.659.038-.772.566a4.493,4.493,0,0,1-4.666,3.605c-.414-.012-.689-.042-.779.523a4.5,4.5,0,0,1-5.533,3.805c-.47-.1-.595,0-.72.435a4.6,4.6,0,0,1-7.256,2.572c-.547-.374-1.065-1.049-1.622-1.078s-.842.862-1.311,1.289a4.093,4.093,0,0,1-4.114,1.007,3.967,3.967,0,0,1-2.916-3.138c-.087-.393-.19-.581-.664-.616a4.1,4.1,0,0,1-4-3.378c-.091-.358-.185-.535-.625-.553A4.129,4.129,0,0,1,20,37.17c-.084-.425-.22-.5-.618-.52a4.128,4.128,0,0,1-3.71-5.879c.212-.491.057-.675-.3-.9-1.621-1.019-3.241-2.039-4.851-3.077a.63.63,0,0,0-.762,0,2.329,2.329,0,0,1-2.134.1C5.616,26.08,3.589,25.312,1.58,24.5A2.351,2.351,0,0,1,.2,21.3Q4.079,11.456,7.987,1.619A2.354,2.354,0,0,1,11.23.209C13.2.97,15.17,1.754,17.138,2.53a2.4,2.4,0,0,1,1.7,2.456c-.01.354.117.473.41.612a11.072,11.072,0,0,0,4.643,1.061c3.181.056,6.4-.014,9.482,1.022a.571.571,0,0,0,.684-.171c.2-.231.439-.428.65-.651a6.159,6.159,0,0,1,5.988-1.9c1.178.223,2.366.39,3.549.584.819.134,1.254.629,1.168,1.327a1.124,1.124,0,0,1-1.4.963c-1.215-.15-2.429-.328-3.63-.558A4.149,4.149,0,0,0,36.347,8.5a64.619,64.619,0,0,1-10.288,8.57c-.814.54-.817.921-.053,1.525a4.442,4.442,0,0,0,4.278.649A14.843,14.843,0,0,0,35.61,16c1.554-1.327,2.785-1.3,4.226.109a13.23,13.23,0,0,0,11.813,3.9,1.7,1.7,0,0,1,1.333.439c2.9,2.139,5.8,4.267,8.687,6.425a.858.858,0,0,0,1.187.046c1.244-.849,2.519-1.653,3.8-2.443a.621.621,0,0,0,.3-.922q-3.068-7.7-6.085-15.426c-.2-.5-.428-.491-.863-.332-1.268.464-2.512,1-3.823,1.34a12.034,12.034,0,0,1-5.014-.133c-.554-.088-1.11-.169-1.661-.273a1.149,1.149,0,0,1-1.032-1.289,1.064,1.064,0,0,1,1.288-.992c1.166.128,2.328.3,3.484.5a6.328,6.328,0,0,0,3.237-.338c.938-.33,1.86-.7,2.8-1.023a.552.552,0,0,0,.448-.652,2.278,2.278,0,0,1,1.535-2.323C63.328,1.8,65.388.971,67.46.18a2.32,2.32,0,0,1,3.092,1.334c1.014,2.5,1.992,5.02,2.971,7.536a1.163,1.163,0,1,1-2.159.825c-.931-2.316-1.856-4.635-2.746-6.967-.192-.5-.369-.575-.866-.367-1.692.709-3.4,1.376-5.12,2.023-.469.177-.551.361-.363.833q3.74,9.41,7.437,18.838c.166.422.337.529.786.344q2.582-1.062,5.2-2.041c.477-.179.536-.377.35-.832-.837-2.052-1.639-4.118-2.449-6.181a3.49,3.49,0,0,1-.236-.723,1.137,1.137,0,0,1,2.133-.727c.3.615.517,1.273.782,1.908.784,1.875,1.424,3.808,2.3,5.648ZM39.139,44.084c.586.423,1.122.862,1.707,1.22a2.274,2.274,0,0,0,3.118-.63,2.051,2.051,0,0,0-.6-2.983c-.443-.345-.89-.686-1.333-1.032-.925-.723-1.135-1.345-.668-1.966.485-.644,1.119-.611,2.062.1,1.16.879,2.3,1.79,3.492,2.623a2.26,2.26,0,0,0,3.2-.486,2.22,2.22,0,0,0-.593-3.148c-.973-.747-1.956-1.479-2.915-2.243a1.143,1.143,0,0,1-.246-1.687,1.16,1.16,0,0,1,1.646-.161c.295.2.568.434.853.65,1.181.895,2.335,1.827,3.551,2.671a2.257,2.257,0,0,0,3.189-.539,2.14,2.14,0,0,0-.583-3.078c-1.112-.859-2.233-1.705-3.336-2.576a1.146,1.146,0,0,1-.332-1.673,1.189,1.189,0,0,1,1.76-.16c.1.073.2.156.3.234l4.508,3.44a2.329,2.329,0,0,0,2.066.558,2.137,2.137,0,0,0,1.708-1.671,2.375,2.375,0,0,0-1.022-2.541c-2.529-1.864-5.074-3.707-7.578-5.6a4.055,4.055,0,0,0-2.9-.928,15.233,15.233,0,0,1-11.788-4.544c-.6-.575-.921-.517-1.485-.013a16.453,16.453,0,0,1-5.287,3.322,6.991,6.991,0,0,1-6.922-.707c-2.192-1.6-2.143-3.959.123-5.45a53.794,53.794,0,0,0,5.2-3.921,9.459,9.459,0,0,0,1.642-1.532c-.156-.054-.244-.093-.335-.113a31.48,31.48,0,0,0-4.952-.465c-2.706-.174-5.5.18-7.991-1.293-.463-.274-.563.075-.689.394q-3.11,7.892-6.234,15.777a.613.613,0,0,0,.3.914c1.266.768,2.511,1.57,3.765,2.357.623.391,1.331,1.172,1.851,1.063.6-.126,1.064-1.017,1.545-1.609a4.131,4.131,0,0,1,4.357-1.582,3.98,3.98,0,0,1,3.159,3.274c.082.385.236.506.647.537a4.15,4.15,0,0,1,4.014,3.465c.085.4.222.464.579.477a4.073,4.073,0,0,1,3.988,3.182c.131.6.343.739.915.776a4.144,4.144,0,0,1,3.792,4.928,5.4,5.4,0,0,1-1.242,2.369M16.444,5.005c0-.33-.266-.339-.467-.418-1.752-.7-3.512-1.375-5.253-2.1-.473-.2-.6-.007-.749.379q-3.7,9.418-7.431,18.824c-.174.439-.168.653.33.839q2.577.961,5.119,2.015c.551.23.728.072.927-.436Q12.571,14.8,16.26,5.5c.065-.165.124-.333.183-.493M22.46,27.286a1.7,1.7,0,0,0-1.375.493c-1.062,1.205-2.132,2.407-3.126,3.668a1.776,1.776,0,0,0,.337,2.469,1.744,1.744,0,0,0,2.433-.065c1.108-1.2,2.161-2.448,3.175-3.726a1.628,1.628,0,0,0,.055-1.878,1.762,1.762,0,0,0-1.5-.961m4.449,3.952a1.538,1.538,0,0,0-1.233.517c-1.039,1.192-2.1,2.371-3.073,3.612a1.77,1.77,0,0,0,.318,2.473,1.8,1.8,0,0,0,2.5-.1c1.07-1.163,2.091-2.373,3.084-3.6a1.656,1.656,0,0,0,.11-1.942,1.778,1.778,0,0,0-1.7-.955M38.1,40.995a1.781,1.781,0,0,0-1.167-1.781,1.72,1.72,0,0,0-2.026.452c-.955,1.061-1.878,2.151-2.794,3.247A1.9,1.9,0,0,0,32.2,45.7a1.871,1.871,0,0,0,2.765-.368c.893-1.014,1.756-2.055,2.633-3.083a1.791,1.791,0,0,0,.5-1.256m-4.63-3.974a1.829,1.829,0,0,0-1.151-1.735,1.766,1.766,0,0,0-2.089.489c-.935,1.046-1.84,2.118-2.741,3.193a1.861,1.861,0,0,0,.056,2.783,1.884,1.884,0,0,0,2.767-.332c.911-1.033,1.792-2.092,2.683-3.142a1.768,1.768,0,0,0,.475-1.255" transform="translate(0 -0.001)" fill="#fff"/>
  </g>
</svg>
