<svg id="Group_15338" data-name="Group 15338" xmlns="http://www.w3.org/2000/svg" xmlns:xlink="http://www.w3.org/1999/xlink" width="34.693" height="29.734" viewBox="0 0 34.693 29.734">
  <defs>
    <clipPath id="clip-path">
      <rect id="Rectangle_1782" data-name="Rectangle 1782" width="34.693" height="29.734" fill="#021f4f"/>
    </clipPath>
  </defs>
  <g id="Group_15337" data-name="Group 15337" clip-path="url(#clip-path)">
    <path id="Path_16592" data-name="Path 16592" d="M31.7,193.277H2.975c-.08-.023-.158-.052-.239-.07A3.344,3.344,0,0,1,.17,190.958c-.07-.19-.114-.388-.17-.583v-14c.084,0,.169-.005.254-.005h34.04a.688.688,0,0,0,.109,0c.227-.037.282.063.281.283-.007,4.445,0,8.891-.012,13.336a3.3,3.3,0,0,1-2.241,3.08c-.237.083-.484.138-.726.207m-12.914-6.485v-.478q0-3.046,0-6.092a1.577,1.577,0,0,0-.276-.957,1.459,1.459,0,0,0-1.609-.544,1.443,1.443,0,0,0-1.017,1.4c-.006,2.079,0,4.158,0,6.237v.435c-.525-.356-.981-.669-1.442-.977a1.453,1.453,0,1,0-1.631,2.395q1.794,1.23,3.594,2.449a1.477,1.477,0,0,0,1.852.006q1.8-1.219,3.594-2.449a1.456,1.456,0,1,0-1.631-2.4c-.458.309-.914.622-1.435.976" transform="translate(0 -163.542)" fill="#021f4f"/>
    <path id="Path_16593" data-name="Path 16593" d="M0,2.537c.108-.1.087-.245.124-.368A2.99,2.99,0,0,1,2.95.01C5.755-.006,8.56,0,11.366.008a2.043,2.043,0,0,1,1.8,1.031c.449.716.9,1.429,1.332,2.158a2.338,2.338,0,0,0,2.189,1.216c5.441-.008,10.882.013,16.323-.017a1.555,1.555,0,0,1,1.678,1.673c-.044,1.836-.019,3.674-.006,5.511,0,.289-.052.4-.369.388-.676-.026-1.354-.023-2.031,0-.283.009-.344-.091-.34-.351.014-.834.01-1.668,0-2.5a1.644,1.644,0,0,0-1.788-1.78q-12.822,0-25.645,0A1.645,1.645,0,0,0,2.729,9.114c-.005.834-.01,1.668,0,2.5,0,.261-.057.358-.34.351-.8-.019-1.6,0-2.394,0Z" transform="translate(0 0)" fill="#021f4f"/>
  </g>
</svg>
