<svg id="Group_15332" data-name="Group 15332" xmlns="http://www.w3.org/2000/svg" xmlns:xlink="http://www.w3.org/1999/xlink" width="85.19" height="85.622" viewBox="0 0 85.19 85.622">
  <defs>
    <clipPath id="clip-path">
      <rect id="Rectangle_1780" data-name="Rectangle 1780" width="85.19" height="85.622" fill="none"/>
    </clipPath>
  </defs>
  <g id="Group_15331" data-name="Group 15331" clip-path="url(#clip-path)">
    <path id="Path_16586" data-name="Path 16586" d="M246.369,162.3a2.075,2.075,0,0,1-.907-1.976c.037-3.547.027-7.094.008-10.641a1.455,1.455,0,0,1,1.069-1.639c.571-.149.36-.545.361-.844.014-4.143,0-8.286.012-12.43a12.626,12.626,0,0,1,6.516-11.451c4.008-2.4,8.054-4.742,12.1-7.088a1.908,1.908,0,0,0,.92-1.114q3.045-8.851,6.13-17.688a5.762,5.762,0,0,1,5.985-4,5.371,5.371,0,0,1,5.03,4.54,5.149,5.149,0,0,0,1.634,3.182,4.956,4.956,0,0,1,1.25,4.892c-2.073,7.9-4.194,15.8-6.309,23.69a7.052,7.052,0,0,1-2.271,3.459c-2.966,2.63-5.888,5.31-8.9,7.886a5.271,5.271,0,0,0-2.062,4.6c.025.386.011.775,0,1.162-.015.616-.109,1.195.77,1.408.5.121.666.7.665,1.256-.006,3.756-.015,7.511.007,11.267a1.912,1.912,0,0,1-.9,1.529Zm3.395-22.072c0,2.651.025,4.827-.016,7-.012.644.193.785.8.78,3.636-.028,7.272,0,10.908-.023.851-.005,1.985.387,2.473-.176.419-.484.17-1.589.136-2.416a7.669,7.669,0,0,1,2.924-6.407c2.977-2.57,5.887-5.218,8.835-7.822a4.913,4.913,0,0,0,1.61-2.415q3.11-11.624,6.216-23.248a2.466,2.466,0,0,0,.026-1.234,2.824,2.824,0,0,0-2.558-2.248,2.973,2.973,0,0,0-2.959,2.132c-1.44,4.406-2.852,8.821-4.305,13.222a1.467,1.467,0,0,0,.127,1.176,5.675,5.675,0,0,1-2.263,7.31c-1.015.621-2.056,1.2-3.087,1.795-1.675.968-3.342,1.95-5.029,2.9a1.431,1.431,0,0,1-2.183-.736,1.517,1.517,0,0,1,.876-1.844c2.635-1.507,5.272-3.01,7.882-4.559a2.835,2.835,0,1,0-2.872-4.887c-4.3,2.494-8.608,4.97-12.853,7.553a9.416,9.416,0,0,0-4.544,7.035c-.353,2.521-.041,5.06-.15,7.114M256.9,159.44c2.622,0,5.244-.006,7.866.006.464,0,.769,0,.759-.637-.038-2.443-.03-4.886,0-7.329.006-.524-.176-.641-.666-.64q-7.911.023-15.821,0c-.53,0-.721.115-.713.686q.048,3.62,0,7.24c-.008.572.183.692.713.687,2.622-.025,5.244-.011,7.866-.011M278.168,96.3a3,3,0,0,0-2.869,2.135c-1.837,5.275-3.651,10.558-5.524,15.82-.289.813-.168,1.023.671,1.268s1,.014,1.222-.707c1.182-3.769,2.446-7.512,3.645-11.276a5.782,5.782,0,0,1,5.082-4.363c.374-.049.522-.143.457-.549a2.882,2.882,0,0,0-2.684-2.327" transform="translate(-201.471 -76.677)" fill="#1a1818"/>
    <path id="Path_16587" data-name="Path 16587" d="M19.145,162.18a2.075,2.075,0,0,1-.907-1.976c.037-3.547.027-7.094.008-10.64a1.467,1.467,0,0,1,1.068-1.64c.365-.1.375-.295.372-.574-.008-.924.031-1.85-.019-2.771a4.631,4.631,0,0,0-1.716-3.311c-3.02-2.658-6-5.358-9.029-8.009a8.537,8.537,0,0,1-2.688-4.414c-1.951-7.413-3.966-14.81-5.953-22.214A5.727,5.727,0,0,1,2.494,100a.9.9,0,0,0,.383-.821,5.742,5.742,0,0,1,4.64-5.833,5.959,5.959,0,0,1,6.626,4.206c2,5.88,4.058,11.741,6.083,17.612a1.482,1.482,0,0,0,.723.842q6.019,3.5,12.018,7.039a12.823,12.823,0,0,1,6.744,11.78c-.012,4.054,0,8.107-.008,12.161,0,.491-.026.882.617,1.049a1.183,1.183,0,0,1,.817,1.256c0,3.815-.006,7.63.008,11.445,0,.694-.455,1.049-.9,1.44ZM36.854,140.6c0-1.937.014-3.875,0-5.812a10.118,10.118,0,0,0-5.273-9.214q-3.158-1.851-6.319-3.7c-1.977-1.158-3.948-2.327-5.931-3.476a2.838,2.838,0,0,0-4.312,2.722,2.777,2.777,0,0,0,1.546,2.254c2.63,1.515,5.264,3.024,7.88,4.561A1.444,1.444,0,0,1,25.056,130a1.388,1.388,0,0,1-1.948.485c-2.867-1.64-5.759-3.243-8.558-4.993a5.447,5.447,0,0,1-2.041-6.7,2.873,2.873,0,0,0,.042-2.193c-1.382-4.174-2.723-8.362-4.077-12.545a2.963,2.963,0,0,0-2.512-2.128,2.547,2.547,0,0,0-2.55,1.146,3.1,3.1,0,0,0-.355,2.811q3.007,11.1,5.973,22.209a6.059,6.059,0,0,0,1.936,3.121c2.982,2.611,5.923,5.267,8.9,7.883a7.311,7.311,0,0,1,2.62,4.73,23.036,23.036,0,0,1,.041,3.3c-.016.565.126.763.732.76q6.437-.039,12.875,0c.605,0,.739-.194.732-.759-.029-2.175-.012-4.351-.012-6.527m-7.186,18.718c2.622,0,5.244-.014,7.866.011.555.005.775-.11.765-.725q-.054-3.575,0-7.151c.008-.594-.176-.741-.751-.739q-7.866.031-15.732,0c-.52,0-.728.1-.72.679q.05,3.62,0,7.24c-.007.561.165.7.706.694,2.622-.026,5.244-.012,7.866-.012M8.446,96.178a2.816,2.816,0,0,0-2.631,2.154c-.133.49-.06.661.492.737a5.7,5.7,0,0,1,4.925,4.1c1.244,3.718,2.415,7.46,3.617,11.191.411,1.276.4,1.246,1.665.939.542-.132.616-.311.436-.824-1.886-5.382-3.745-10.773-5.619-16.159a3.07,3.07,0,0,0-2.886-2.134" transform="translate(0 -76.558)" fill="#1a1818"/>
    <path id="Path_16588" data-name="Path 16588" d="M114.975.041a13.977,13.977,0,0,1,9.733,3.634c.465.415.715.469,1.229.029a14.3,14.3,0,0,1,23.63,8.363,13.494,13.494,0,0,1-3.817,12.226c-6.344,6.465-12.789,12.832-19.2,19.233a1.487,1.487,0,0,1-2.466-.037c-6.386-6.382-12.834-12.7-19.125-19.179a13.5,13.5,0,0,1-3.268-14.529c1.85-5.466,5.861-8.585,11.517-9.6.5-.089,1.009-.081,1.764-.137m31.888,14.138a12.8,12.8,0,0,0-.126-1.572c-.843-4.508-3.378-7.658-7.755-9.072a11.023,11.023,0,0,0-11.616,2.771c-2.043,1.938-2.049,1.958-4.056-.007a11.413,11.413,0,0,0-18.881,4.417,10.854,10.854,0,0,0,2.7,11.7c5.848,5.953,11.791,11.813,17.679,17.728.414.415.635.42,1.05,0,5.907-5.937,11.845-11.844,17.747-17.786a11.173,11.173,0,0,0,3.254-8.184" transform="translate(-82.763 -0.001)" fill="#1a1818"/>
    <path id="Path_16589" data-name="Path 16589" d="M201.676,64.695c0,.924.018,1.848-.006,2.771a1.363,1.363,0,0,1-1.456,1.455c-1.221.024-2.444.026-3.665,0-.473-.011-.617.143-.605.61.028,1.161.017,2.324.006,3.486-.01,1.124-.513,1.627-1.642,1.634q-2.637.015-5.274,0c-1.168-.006-1.651-.508-1.658-1.707-.006-1.043-.04-2.088.012-3.128.034-.671-.12-.95-.863-.9-1.1.069-2.2.029-3.306.014a1.389,1.389,0,0,1-1.563-1.529q-.024-2.771,0-5.543a1.366,1.366,0,0,1,1.5-1.5c1.192-.019,2.384-.028,3.575.006.511.015.666-.15.651-.656-.033-1.161-.02-2.324-.007-3.486a1.405,1.405,0,0,1,1.593-1.588q2.682-.018,5.364,0c1.112.007,1.606.521,1.616,1.658.009,1.043.069,2.091-.019,3.127-.071.844.258,1,1,.95.98-.061,1.966-.018,2.949-.014,1.315,0,1.786.465,1.793,1.752,0,.864,0,1.728,0,2.592m-5.321,1.378h.357c2.145,0,2.125,0,2.122-2.124,0-.565-.128-.782-.734-.757-1.16.047-2.323.027-3.484.009a1.379,1.379,0,0,1-1.514-1.487c-.019-.685,0-1.37,0-2.055,0-2.262,0-2.243-2.237-2.19-.519.012-.654.174-.641.667.031,1.161.02,2.323.006,3.485a1.415,1.415,0,0,1-1.6,1.583c-.655.01-1.31,0-1.966,0-2.2,0-2.185,0-2.166,2.171.005.532.121.732.691.71,1.19-.044,2.383-.029,3.573-.007a1.364,1.364,0,0,1,1.466,1.443c.024.714.006,1.43.006,2.144,0,2.245,0,2.228,2.283,2.143.482-.018.6-.172.593-.623-.025-1.191-.021-2.383,0-3.574a1.393,1.393,0,0,1,1.554-1.536c.566-.012,1.132,0,1.7,0" transform="translate(-149.091 -44.832)" fill="#1a1818"/>
  </g>
</svg>
